<?xml version="1.0" encoding="UTF-8"?>
<svg version="1.1" xmlns="http://www.w3.org/2000/svg" width="500" height="500">
<path d="M0 0 C165 0 330 0 500 0 C500 165 500 330 500 500 C335 500 170 500 0 500 C0 335 0 170 0 0 Z " fill="#FEFEFE" transform="translate(0,0)"/>
<path d="M0 0 C3.2878418 1.47436523 3.2878418 1.47436523 6.69921875 3.55859375 C7.63513855 4.12159431 7.63513855 4.12159431 8.58996582 4.69596863 C10.63156034 5.92883647 12.65918793 7.1829223 14.6875 8.4375 C16.12128677 9.3085542 17.55595205 10.17816384 18.99145508 11.04638672 C22.64450965 13.26035919 26.28683052 15.49133446 29.92626953 17.7276001 C33.62892827 19.99947809 37.34265909 22.25309674 41.05580139 24.50778198 C43.90025552 26.23500284 46.74336001 27.96432594 49.58374023 29.69824219 C55.65961603 33.40019241 61.76131378 37.04932826 67.91015625 40.62890625 C68.56803635 41.01222107 69.22591644 41.39553589 69.9037323 41.79046631 C73.068361 43.6325844 76.23664461 45.46795929 79.41088867 47.29345703 C95.90134218 56.8550014 95.90134218 56.8550014 98.3125 61.5625 C97.83489777 65.28779739 95.77322294 66.5466578 93 69 C90.59147896 70.43283416 88.25182343 71.72352234 85.75 72.9609375 C85.05543701 73.31459381 84.36087402 73.66825012 83.64526367 74.03262329 C81.43469163 75.1559471 79.21773289 76.2658916 77 77.375 C74.81967401 78.47607675 72.64076996 79.5799231 70.4621582 80.68438721 C69.03574853 81.40702854 67.60850838 82.12803307 66.18041992 82.84735107 C60.53154077 85.70049097 54.97402208 88.70012448 49.44140625 91.77197266 C47 93 47 93 45 93 C45 102.9 45 112.8 45 123 C38.92241715 124.21551657 33.01870048 125.36799754 26.89453125 126.10546875 C26.16739426 126.19379471 25.44025726 126.28212067 24.69108582 126.37312317 C23.16632459 126.55601693 21.64127939 126.73655797 20.1159668 126.91479492 C17.83272951 127.18510505 15.5523637 127.47422767 13.27148438 127.76367188 C3.67115498 128.92708433 -5.34628461 129.02880972 -15 128 C-16.06593887 127.89140152 -16.06593887 127.89140152 -17.15341187 127.78060913 C-21.74668208 127.31244518 -26.33433487 126.80433668 -30.92041016 126.27050781 C-33.28882642 125.99549155 -35.65800957 125.7279184 -38.02734375 125.4609375 C-39.54432075 125.28689289 -41.06124984 125.11242999 -42.578125 124.9375 C-43.2811676 124.85830322 -43.98421021 124.77910645 -44.70855713 124.69750977 C-47.62284825 124.35436605 -50.20562105 123.93145965 -53 123 C-53.33 113.1 -53.66 103.2 -54 93 C-56.28035156 91.7934375 -58.56070313 90.586875 -60.91015625 89.34375 C-63.1742656 88.14556557 -65.43833103 86.94729819 -67.70239258 85.74902344 C-69.24889642 84.93057783 -70.79544429 84.1122154 -72.34204102 83.29394531 C-82.57155631 77.88164408 -92.79221369 72.45317865 -103 67 C-102.94247559 68.06420166 -102.88495117 69.12840332 -102.82568359 70.22485352 C-102.68847656 72.76318359 -102.55126953 75.30151367 -102.4140625 77.83984375 C-102.27742187 78.88269531 -102.14078125 79.92554688 -102 81 C-101.34 81.33 -100.68 81.66 -100 82 C-99.950623 86.52065428 -99.91429177 91.04115217 -99.89013672 95.56201172 C-99.88006882 97.10045098 -99.86641354 98.63887107 -99.84912109 100.17724609 C-99.82490683 102.38644133 -99.81352509 104.59538395 -99.8046875 106.8046875 C-99.79436493 107.49432587 -99.78404236 108.18396423 -99.77340698 108.89450073 C-99.77300522 110.59800906 -99.87808974 112.30085943 -100 114 C-102 116 -102 116 -104.5 116.25 C-107 116 -107 116 -109 114 C-109.25878906 110.95898438 -109.25878906 110.95898438 -109.265625 107.09375 C-109.26753845 106.41324585 -109.2694519 105.7327417 -109.27142334 105.03161621 C-109.27278463 103.59252554 -109.26909205 102.15342256 -109.26074219 100.71435547 C-109.25004128 98.50850913 -109.26063872 96.30347719 -109.2734375 94.09765625 C-109.27211589 92.70051903 -109.26955348 91.30338232 -109.265625 89.90625 C-109.26336914 88.63072266 -109.26111328 87.35519531 -109.25878906 86.04101562 C-109 83 -109 83 -107 81 C-106.71127924 78.6404126 -106.71127924 78.6404126 -106.76171875 75.9140625 C-106.74560547 74.90085937 -106.72949219 73.88765625 -106.71289062 72.84375 C-106.69602564 70.70578934 -106.69073134 68.56770469 -106.69726562 66.4296875 C-106.67728516 65.41390625 -106.65730469 64.398125 -106.63671875 63.3515625 C-106.63373779 62.42166504 -106.63075684 61.49176758 -106.62768555 60.53369141 C-105.53090419 56.10646584 -101.97352952 54.60183886 -98.2746582 52.31518555 C-96.80258911 51.48434448 -96.80258911 51.48434448 -95.30078125 50.63671875 C-93.63088135 49.68913696 -93.63088135 49.68913696 -91.92724609 48.72241211 C-91.33901062 48.39127411 -90.75077515 48.06013611 -90.14471436 47.71896362 C-87.63313685 46.30504564 -85.12707484 44.8814735 -82.62054443 43.45863342 C-81.32383464 42.72272457 -80.02683499 41.98732624 -78.72955322 41.25242615 C-72.42563713 37.68042135 -66.14791519 34.06364596 -59.875 30.4375 C-58.82062744 29.8285791 -57.76625488 29.2196582 -56.67993164 28.59228516 C-54.54332848 27.35829547 -52.40685397 26.124083 -50.27050781 24.88964844 C-47.45606159 23.26350528 -44.64137979 21.63777155 -41.82637024 20.01260376 C-40.09762799 19.01456168 -38.36900402 18.01631474 -36.64038086 17.01806641 C-34.41056247 15.73191063 -32.17963513 14.4476752 -29.94750977 13.16552734 C-25.44167725 10.57619178 -20.94315229 7.98348877 -16.50390625 5.28125 C-15.86356445 4.89702881 -15.22322266 4.51280762 -14.56347656 4.11694336 C-12.97966136 3.16316507 -11.40525407 2.1938069 -9.83203125 1.22265625 C-6.2501214 -0.32374069 -3.89037111 -0.3107017 0 0 Z " fill="#5271FE" transform="translate(251,135)"/>
<path d="M0 0 C1.21953369 -0.02239746 2.43906738 -0.04479492 3.69555664 -0.06787109 C11.23075692 -0.04787405 17.2874936 0.46411746 22.98632812 5.92041016 C27.58713285 11.15374464 27.79185071 15.65976097 27.7109375 22.359375 C27.24455002 27.60956546 25.64207956 31.43333677 21.71875 35 C17.20615736 38.36532333 13.48633154 39.53589681 7.84765625 39.8671875 C6.69072266 39.9384082 5.53378906 40.00962891 4.34179688 40.08300781 C3.07400391 40.15874023 1.80621094 40.23447266 0.5 40.3125 C-2.25938297 40.48813996 -5.01838468 40.66939573 -7.77734375 40.8515625 C-8.49755707 40.8990564 -9.21777039 40.94655029 -9.95980835 40.9954834 C-38.83797338 42.91021695 -67.42436298 46.11457837 -96.09204102 50.09509277 C-98.33768493 50.40634048 -100.58375397 50.71421519 -102.83007812 51.02050781 C-117.94661523 53.09463732 -132.86579286 55.76607058 -147.80371094 58.86914062 C-151.82112606 59.69679924 -155.84544535 60.48388016 -159.875 61.25 C-161.69451172 61.59998047 -161.69451172 61.59998047 -163.55078125 61.95703125 C-166.5625 62.4375 -166.5625 62.4375 -170.5625 62.4375 C-170.72535834 60.37764359 -170.84128489 58.3140431 -170.9375 56.25 C-171.00710937 55.10144531 -171.07671875 53.95289063 -171.1484375 52.76953125 C-170.51352121 49.15897392 -169.68517418 47.86008838 -166.73486328 45.72680664 C-161.61607653 42.68878542 -156.21819812 40.22363589 -150.8125 37.75 C-150.15277191 37.44513672 -149.49304382 37.14027344 -148.81332397 36.82617188 C-129.59869001 27.95970362 -109.90555981 20.30172126 -89.5625 14.4375 C-88.84739258 14.22818848 -88.13228516 14.01887695 -87.39550781 13.80322266 C-59.0182786 5.59414126 -29.55821355 0.33772333 0 0 Z " fill="#FF924E" transform="translate(421.5625,298.5625)"/>
<path d="M0 0 C0.70116943 -0.00100708 1.40233887 -0.00201416 2.12475586 -0.00305176 C13.63515314 0.00811573 24.7888669 0.82292313 36.13720703 2.80126953 C38.79394291 3.25754691 41.45485985 3.66190431 44.12109375 4.05859375 C78.25277967 9.32333079 111.2780273 20.05787284 142.81152344 33.95849609 C145.57780144 35.17431619 148.35299164 36.36632231 151.1328125 37.55078125 C152.73472845 38.24136821 154.33631554 38.93271873 155.9375 39.625 C156.6375415 39.92220947 157.33758301 40.21941895 158.05883789 40.52563477 C167.50244359 44.67979871 167.50244359 44.67979871 170.75 48.25 C171.43359375 51.80078125 171.43359375 51.80078125 171.1875 55.5625 C171.12433594 56.81675781 171.06117188 58.07101562 170.99609375 59.36328125 C170.87427734 60.79220703 170.87427734 60.79220703 170.75 62.25 C163.83150648 61.70392493 157.2125442 60.59628601 150.4375 59.125 C138.00312343 56.5299149 125.48900704 54.55568311 112.9375 52.625 C111.51623306 52.40623199 111.51623306 52.40623199 110.06625366 52.18304443 C104.52166861 51.33165412 98.97545314 50.49150965 93.42843628 49.65612793 C90.79908277 49.25744236 88.17104709 48.85095067 85.54321289 48.44238281 C74.65602355 46.75966885 63.77222868 45.36253521 52.8125 44.25 C52.00892059 44.16595917 51.20534119 44.08191833 50.37741089 43.99533081 C40.09543395 42.92471632 29.82133091 42.08813157 19.5 41.50390625 C18.48135361 41.44447845 17.46270721 41.38505066 16.41319275 41.32382202 C11.43461643 41.03584023 6.45687092 40.77333953 1.47485352 40.55273438 C-0.34883851 40.45391426 -2.17248998 40.35434188 -3.99609375 40.25390625 C-5.224953 40.21324791 -5.224953 40.21324791 -6.4786377 40.17176819 C-13.66080696 39.73730866 -18.6881199 36.9467159 -23.625 31.75 C-27.334181 26.04356769 -28.08417834 20.98678204 -27.25 14.25 C-25.36484657 8.49294461 -21.01959922 4.75083884 -16.25 1.25 C-11.57012211 -1.08993894 -5.1767722 0.00509348 0 0 Z " fill="#FFBD5A" transform="translate(71.25,298.75)"/>
<path d="M0 0 C2.0681807 0.71070815 4.1279628 1.44622129 6.1796875 2.203125 C7.29569336 2.6043457 8.41169922 3.00556641 9.56152344 3.41894531 C35.31563381 12.90806135 89.64326926 33.63028852 103.0546875 60.453125 C103.31328885 64.50454619 103.35910304 65.99650169 101.0546875 69.453125 C97.48129801 68.85610652 94.5307062 67.89517504 91.265625 66.3359375 C90.33862793 65.89958984 89.41163086 65.46324219 88.45654297 65.01367188 C87.45768066 64.53994141 86.45881836 64.06621094 85.4296875 63.578125 C52.65377648 48.32700739 18.07333882 34.89098363 -16.79394531 25.21826172 C-21.15700689 23.66653283 -24.03053235 21.07478073 -26.3203125 17.015625 C-27.67831933 11.44779698 -27.04287365 7.96110483 -24.30859375 3.06640625 C-18.18987637 -4.17436818 -8.13070776 -2.4335716 0 0 Z " fill="#FFBD5B" transform="translate(138.9453125,264.546875)"/>
<path d="M0 0 C3.92649612 3.63200891 5.32977482 5.80479122 5.9375 11.1875 C5.73457475 15.85478067 4.28671773 18.57243146 1.5 22.3125 C-2.86245416 24.85779778 -7.39564282 26.28870203 -12.234375 27.62109375 C-21.50297598 30.2650143 -30.63144249 33.25622491 -39.75 36.375 C-40.56583557 36.65329651 -41.38167114 36.93159302 -42.222229 37.21832275 C-57.94467932 42.60146792 -73.25298859 48.69918514 -88.5 55.3125 C-90.10393519 55.99923881 -91.70807578 56.68549824 -93.3125 57.37109375 C-98.47206811 59.59156142 -103.59974283 61.86061462 -108.6484375 64.32421875 C-109.33566895 64.65639404 -110.02290039 64.98856934 -110.73095703 65.33081055 C-112.03684516 65.96575325 -113.33774763 66.61110019 -114.63232422 67.26879883 C-117.2512768 68.54409274 -118.98625448 69.37878974 -121.921875 69 C-122.44265625 68.773125 -122.9634375 68.54625 -123.5 68.3125 C-124.28889318 65.31470592 -124.77777764 63.3413447 -124.5 60.3125 C-122.66700407 57.40607152 -120.16046584 55.45130587 -117.5 53.3125 C-116.80777344 52.72082031 -116.11554688 52.12914062 -115.40234375 51.51953125 C-93.82788204 33.57165144 -29.94696799 -14.43871671 0 0 Z " fill="#FF924F" transform="translate(375.5,264.6875)"/>
<path d="M0 0 C10.125 3.375 10.125 3.375 13.60180664 4.62573242 C14.39252563 4.90960815 15.18324463 5.19348389 15.9979248 5.48596191 C16.79396118 5.77289917 17.58999756 6.05983643 18.41015625 6.35546875 C19.16776245 6.62766235 19.92536865 6.89985596 20.70593262 7.18029785 C23.49186183 8.18156754 26.27714489 9.18463436 29.0625 10.1875 C35.311875 12.435625 41.56125 14.68375 48 17 C48 32.18 48 47.36 48 63 C42.1158367 64.30759184 36.54788598 65.421285 30.60546875 66.0703125 C29.8508284 66.15626678 29.09618805 66.24222107 28.31867981 66.33078003 C26.74176261 66.50942152 25.16458341 66.68576456 23.5871582 66.85986328 C21.17529373 67.12634866 18.76438937 67.40049032 16.35351562 67.67578125 C14.8125501 67.84940356 13.27153607 68.02259606 11.73046875 68.1953125 C11.01376511 68.27653351 10.29706146 68.35775452 9.55863953 68.44143677 C6.33855895 68.79457308 3.24591806 69 0 69 C0 46.23 0 23.46 0 0 Z " fill="#014AAD" transform="translate(247,195)"/>
<path d="M0 0 C4.7958033 2.66120065 7.57236418 6.32977398 9.75 11.3125 C10.65638154 16.91941835 9.79043145 21.64974525 7.02734375 26.5859375 C4.35171781 30.20253281 0.92305926 31.92148025 -3.25 33.3125 C-8.51612474 33.89948843 -13.59670368 34.28008634 -18.1875 31.3125 C-22.36955359 27.73362722 -24.7239868 23.4631564 -25.62890625 18.04296875 C-25.93054612 12.33127181 -24.58981024 8.91602222 -21.25 4.3125 C-18.75 2 -18.75 2 -16.25 0.3125 C-15.651875 -0.1 -15.05375 -0.5125 -14.4375 -0.9375 C-9.31422212 -2.69405242 -4.81768507 -2.22008995 0 0 Z " fill="#FF9553" transform="translate(78.25,368.6875)"/>
<path d="M0 0 C9 0 9 0 11.29101562 1.72827148 C12.09055664 2.91271851 12.09055664 2.91271851 12.90625 4.12109375 C13.8034375 5.40016602 13.8034375 5.40016602 14.71875 6.70507812 C15.3065625 7.60677734 15.894375 8.50847656 16.5 9.4375 C17.11875 10.33533203 17.7375 11.23316406 18.375 12.15820312 C19.51198492 13.81007266 20.63641757 15.47070086 21.74414062 17.14233398 C22.86774595 18.93100439 22.86774595 18.93100439 24 20 C24.33 13.4 24.66 6.8 25 0 C27.31 0 29.62 0 32 0 C32 11.22 32 22.44 32 34 C24 34 24 34 21.93017578 32.39526367 C21.4401709 31.66025635 20.95016602 30.92524902 20.4453125 30.16796875 C19.89359375 29.36939453 19.341875 28.57082031 18.7734375 27.74804688 C18.22945313 26.90306641 17.68546875 26.05808594 17.125 25.1875 C16.5578125 24.35412109 15.990625 23.52074219 15.40625 22.66210938 C13.91148549 20.45715462 12.45018611 18.2344034 11 16 C10.34 15.01 9.68 14.02 9 13 C8.67 19.93 8.34 26.86 8 34 C5.36 34 2.72 34 0 34 C0 22.78 0 11.56 0 0 Z " fill="#FF9452" transform="translate(332,368)"/>
<path d="M0 0 C8 0 8 0 10.17749023 1.62060547 C10.71575439 2.36197754 11.25401855 3.10334961 11.80859375 3.8671875 C12.40994141 4.67027344 13.01128906 5.47335937 13.63085938 6.30078125 C14.22705078 7.15027344 14.82324219 7.99976563 15.4375 8.875 C16.06076172 9.71675781 16.68402344 10.55851562 17.32617188 11.42578125 C21.66084715 17.3216943 21.66084715 17.3216943 23 20 C23.33 13.4 23.66 6.8 24 0 C26.64 0 29.28 0 32 0 C32 11.22 32 22.44 32 34 C24 34 24 34 21.93017578 32.51879883 C21.4401709 31.83841553 20.95016602 31.15803223 20.4453125 30.45703125 C19.61773437 29.34038086 19.61773437 29.34038086 18.7734375 28.20117188 C18.22945312 27.41291016 17.68546875 26.62464844 17.125 25.8125 C16.5578125 25.04357422 15.990625 24.27464844 15.40625 23.48242188 C12.74581047 19.81013271 10.38261524 16.36661394 9 12 C8.34 12 7.68 12 7 12 C7 19.26 7 26.52 7 34 C4.69 34 2.38 34 0 34 C0 22.78 0 11.56 0 0 Z " fill="#FF9351" transform="translate(190,368)"/>
<path d="M0 0 C2.866875 -0.061875 5.73375 -0.12375 8.6875 -0.1875 C10.02880981 -0.22846802 10.02880981 -0.22846802 11.3972168 -0.27026367 C16.10211284 -0.31933346 19.17803793 -0.06055556 23 3 C25.33067577 6.21855225 25.46741137 9.10490526 25 13 C23.125 16.375 23.125 16.375 21 19 C20.34 19 19.68 19 19 19 C21.24956789 23.82221201 23.59917457 27.87042626 27 32 C27 32.66 27 33.32 27 34 C22.06704274 35.05706227 22.06704274 35.05706227 19 34 C16.54435858 31.0662691 14.67158211 28.03489392 12.76171875 24.72265625 C11.22643162 21.7284244 11.22643162 21.7284244 8 21 C8 25.29 8 29.58 8 34 C5.36 34 2.72 34 0 34 C0 22.78 0 11.56 0 0 Z " fill="#FF9655" transform="translate(422,368)"/>
<path d="M0 0 C2.64 0 5.28 0 8 0 C8.01458252 0.7113208 8.02916504 1.4226416 8.04418945 2.15551758 C8.11861006 5.37506332 8.21529 8.59356518 8.3125 11.8125 C8.33505859 12.93205078 8.35761719 14.05160156 8.38085938 15.20507812 C8.41630859 16.27822266 8.45175781 17.35136719 8.48828125 18.45703125 C8.51446533 19.44678955 8.54064941 20.43654785 8.56762695 21.45629883 C8.81665506 24.02153269 8.81665506 24.02153269 10.30541992 25.86206055 C12.16336851 27.36102029 12.16336851 27.36102029 15.625 26.75 C18.82263935 26.35631915 18.82263935 26.35631915 20 25 C20.15786308 23.14825294 20.25107356 21.2909089 20.31640625 19.43359375 C20.35830078 18.30888672 20.40019531 17.18417969 20.44335938 16.02539062 C20.48267578 14.84138672 20.52199219 13.65738281 20.5625 12.4375 C20.60568359 11.24962891 20.64886719 10.06175781 20.69335938 8.83789062 C20.79983546 5.89205216 20.90184841 2.9461257 21 0 C23.64 0 26.28 0 29 0 C29.08725659 4.2290362 29.1404789 8.45784012 29.1875 12.6875 C29.21263672 13.88568359 29.23777344 15.08386719 29.26367188 16.31835938 C29.27333984 17.47529297 29.28300781 18.63222656 29.29296875 19.82421875 C29.3086792 20.88729248 29.32438965 21.95036621 29.34057617 23.0456543 C28.94933876 26.4394636 28.01186933 28.26422955 26 31 C20.82950924 34.7486058 15.14921709 34.82355586 9 34 C4.42289056 31.79317938 2.24566148 29.49736076 0 25 C-0.34057617 22.13745117 -0.34057617 22.13745117 -0.29296875 19.04296875 C-0.28330078 17.93115234 -0.27363281 16.81933594 -0.26367188 15.67382812 C-0.23853516 14.52333984 -0.21339844 13.37285156 -0.1875 12.1875 C-0.17396484 11.01767578 -0.16042969 9.84785156 -0.14648438 8.64257812 C-0.11120278 5.761248 -0.0619028 2.88086096 0 0 Z " fill="#FF9655" transform="translate(93,368)"/>
<path d="M0 0 C4.05710804 2.17881728 7.28357406 4.62964812 9.375 8.8125 C5.91 10.2975 5.91 10.2975 2.375 11.8125 C1.715 11.1525 1.055 10.4925 0.375 9.8125 C-2.97760356 7.57743096 -4.75173566 7.14356453 -8.6875 7.3671875 C-12.21051319 8.17691231 -13.64121635 9.89881776 -15.625 12.8125 C-16.14021375 17.00781196 -16.10109387 20.29384029 -13.625 23.8125 C-9.89920911 26.29636059 -8.03788598 26.1929212 -3.625 25.8125 C-0.89518168 24.45849355 -0.89518168 24.45849355 1.375 22.8125 C2.365 22.4825 3.355 22.1525 4.375 21.8125 C7.0625 23.25 7.0625 23.25 9.375 24.8125 C8.4669838 25.94449353 7.54816174 27.06782363 6.625 28.1875 C6.11453125 28.81398438 5.6040625 29.44046875 5.078125 30.0859375 C1.56438461 33.64803212 -1.58302525 34.12494307 -6.5 34.1875 C-11.71016768 34.09242395 -14.68921564 33.45310053 -18.625 29.8125 C-23.38139595 24.54189908 -23.98433648 20.44987613 -23.90234375 13.53515625 C-23.36579199 8.26788054 -20.35569435 5.33914615 -16.5625 2 C-11.1939561 -1.99785184 -6.28475436 -2.05879884 0 0 Z " fill="#FF9453" transform="translate(291.625,368.1875)"/>
<path d="M0 0 C6.93 0 13.86 0 21 0 C21 1.98 21 3.96 21 6 C16.71 6 12.42 6 8 6 C8 8.64 8 11.28 8 14 C11.63 14 15.26 14 19 14 C19 15.98 19 17.96 19 20 C15.37 20 11.74 20 8 20 C8 22.31 8 24.62 8 27 C12.29 27 16.58 27 21 27 C21 29.31 21 31.62 21 34 C14.07 34 7.14 34 0 34 C0 22.78 0 11.56 0 0 Z " fill="#FF9453" transform="translate(306,368)"/>
<path d="M0 0 C6.6 0 13.2 0 20 0 C20 1.98 20 3.96 20 6 C15.71 6 11.42 6 7 6 C7 8.64 7 11.28 7 14 C10.63 14 14.26 14 18 14 C18 15.98 18 17.96 18 20 C14.7 20 11.4 20 8 20 C8 22.31 8 24.62 8 27 C12.29 27 16.58 27 21 27 C21 29.31 21 31.62 21 34 C14.07 34 7.14 34 0 34 C0 22.78 0 11.56 0 0 Z " fill="#FF9351" transform="translate(229,368)"/>
<path d="M0 0 C6.6 0 13.2 0 20 0 C20 1.98 20 3.96 20 6 C15.71 6 11.42 6 7 6 C7 8.64 7 11.28 7 14 C10.63 14 14.26 14 18 14 C18 15.98 18 17.96 18 20 C14.37 20 10.74 20 7 20 C7 22.31 7 24.62 7 27 C11.29 27 15.58 27 20 27 C20 29.31 20 31.62 20 34 C13.4 34 6.8 34 0 34 C0 22.78 0 11.56 0 0 Z " fill="#FF924E" transform="translate(396,368)"/>
<path d="M0 0 C7.92 0 15.84 0 24 0 C24 1.98 24 3.96 24 6 C21.36 6 18.72 6 16 6 C16 15.24 16 24.48 16 34 C13.36 34 10.72 34 8 34 C8 25.09 8 16.18 8 7 C5.36 7 2.72 7 0 7 C0 4.69 0 2.38 0 0 Z " fill="#FF9655" transform="translate(368,368)"/>
<path d="M0 0 C7.92 0 15.84 0 24 0 C24 1.98 24 3.96 24 6 C21.36 6 18.72 6 16 6 C16 15.24 16 24.48 16 34 C13.36 34 10.72 34 8 34 C8 25.09 8 16.18 8 7 C5.36 7 2.72 7 0 7 C0 4.69 0 2.38 0 0 Z " fill="#FF9655" transform="translate(125,368)"/>
<path d="M0 0 C3.70219508 2.54525912 4.7681855 4.18864925 6 8.5 C6 12.48112565 5.5290797 13.96510436 3 17 C0.3017982 19.11480682 -1.55721934 19.92463308 -4.9375 20.5 C-9.25011712 19.79589925 -10.88856971 18.03907145 -14 15 C-15.41000664 12.17998673 -15.24548451 10.12992745 -15 7 C-11.72159887 0.13096906 -7.17669584 -1.20870667 0 0 Z " fill="#FFFBF9" transform="translate(75,375)"/>
<path d="M0 0 C2.31 0 4.62 0 7 0 C7 8.91 7 17.82 7 27 C10.96 27 14.92 27 19 27 C19 29.31 19 31.62 19 34 C12.73 34 6.46 34 0 34 C0 22.78 0 11.56 0 0 Z " fill="#FF9350" transform="translate(153,368)"/>
<path d="M0 0 C2.75 2.3125 2.75 2.3125 5 5 C5.61875 5.61875 6.2375 6.2375 6.875 6.875 C8.65063307 10.22897358 8.02005935 12.42979227 7 16 C4.875 18.5 4.875 18.5 2 20 C-1.84947289 20.28514614 -3.9846274 19.85218772 -6.96875 17.34765625 C-9.8018614 14.3229615 -11.73481417 11.71181459 -13.1875 7.8125 C-12.9386299 4.07944856 -11.60739582 2.60739582 -9 0 C-5.77509551 -1.61245225 -3.43772273 -0.81573082 0 0 Z " fill="#FFFBF8" transform="translate(131,128)"/>
<path d="M0 0 C1.03382812 0.01933594 2.06765625 0.03867188 3.1328125 0.05859375 C4.16148438 0.05988281 5.19015625 0.06117188 6.25 0.0625 C9.61072305 0.54696787 11.53399638 1.49960487 14.2578125 3.49609375 C16.44516552 7.87079978 15.17730529 12.89862979 14.2578125 17.49609375 C7.3278125 16.50609375 0.3978125 15.51609375 -6.7421875 14.49609375 C-5.39009117 0.97513045 -5.39009117 0.97513045 0 0 Z " fill="#FFFAF8" transform="translate(70.7421875,226.50390625)"/>
<path d="M0 0 C4.5116335 0.38671144 7.56052707 2.10771594 11 5 C12.1875 7.6875 12.1875 7.6875 12 11 C10.22712399 15.10670106 8.17214717 18.82785283 5 22 C-1.12459714 22.72054084 -3.96149553 21.05327337 -9 18 C-7.69100294 15.18585648 -6.37721835 12.37397463 -5.0625 9.5625 C-4.68931641 8.76005859 -4.31613281 7.95761719 -3.93164062 7.13085938 C-3.39506836 5.98520508 -3.39506836 5.98520508 -2.84765625 4.81640625 C-2.51773682 4.10943604 -2.18781738 3.40246582 -1.84790039 2.67407227 C-1 1 -1 1 0 0 Z " fill="#FFFAF7" transform="translate(323,99)"/>
<path d="M0 0 C2.64 0 5.28 0 8 0 C8 11.22 8 22.44 8 34 C5.36 34 2.72 34 0 34 C0 22.78 0 11.56 0 0 Z " fill="#FF9757" transform="translate(175,368)"/>
<path d="M0 0 C2.07906883 3.03863906 2.08655369 4.75949608 1.625 8.375 C0.635 9.86 0.635 9.86 -0.375 11.375 C0.285 12.15875 0.945 12.9425 1.625 13.75 C3.625 16.375 3.625 16.375 3.625 18.375 C1.03127542 17.30173466 -0.19925055 16.64661279 -1.75 14.25 C-3.31173657 12.0046417 -3.31173657 12.0046417 -6.5625 12.125 C-7.9546875 12.24875 -7.9546875 12.24875 -9.375 12.375 C-9.045 13.035 -8.715 13.695 -8.375 14.375 C-8.335008 16.37460012 -8.33153201 18.37547242 -8.375 20.375 C-9.035 20.375 -9.695 20.375 -10.375 20.375 C-11.07388677 17.62744513 -11.7593988 14.87768803 -12.4375 12.125 C-12.63666016 11.34769531 -12.83582031 10.57039063 -13.04101562 9.76953125 C-13.22470703 9.01542969 -13.40839844 8.26132813 -13.59765625 7.484375 C-13.77047119 6.79311523 -13.94328613 6.10185547 -14.12133789 5.38964844 C-14.40656637 3.12429191 -14.05576195 1.5381688 -13.375 -0.625 C-4.10227273 -2.80681818 -4.10227273 -2.80681818 0 0 Z " fill="#FF995B" transform="translate(216.375,85.625)"/>
<path d="M0 0 C3.69230769 7.84615385 3.69230769 7.84615385 3 12 C1.81640625 13.64453125 1.81640625 13.64453125 0 15 C-2.55859375 15.15234375 -2.55859375 15.15234375 -5.4375 14.9375 C-9.87248202 14.68976485 -9.87248202 14.68976485 -13.5625 17 C-14.2740625 17.99 -14.2740625 17.99 -15 19 C-15.66 19 -16.32 19 -17 19 C-16.75 17.1875 -16.75 17.1875 -16 15 C-15.319375 14.54625 -14.63875 14.0925 -13.9375 13.625 C-13.298125 13.08875 -12.65875 12.5525 -12 12 C-11.66602213 8.87413125 -11.66602213 8.87413125 -12 6 C-14.64 6.33 -17.28 6.66 -20 7 C-19.67 6.01 -19.34 5.02 -19 4 C-16.015625 2.83203125 -16.015625 2.83203125 -12.25 1.8125 C-11.01765625 1.46832031 -9.7853125 1.12414062 -8.515625 0.76953125 C-5.5141354 0.11253853 -3.04784767 -0.16867859 0 0 Z " fill="#FFA066" transform="translate(420,209)"/>
<path d="M0 0 C0.33 1.65 0.66 3.3 1 5 C-0.91805705 6.68390464 -2.83813059 8.3653812 -4.76171875 10.04296875 C-6.18678823 11.28897191 -7.60666737 12.54095485 -9.01953125 13.80078125 C-9.63183594 14.34089844 -10.24414062 14.88101563 -10.875 15.4375 C-11.70644531 16.17806641 -11.70644531 16.17806641 -12.5546875 16.93359375 C-14 18 -14 18 -16 18 C-15 16 -14 14 -13 12 C-13.95726868 8.83440898 -13.95726868 8.83440898 -16 6 C-19.08961458 5.02525184 -19.08961458 5.02525184 -22 5 C-22 4.34 -22 3.68 -22 3 C-19.64741656 2.49133331 -17.29338596 1.9929375 -14.9375 1.5 C-13.95233398 1.28537109 -13.95233398 1.28537109 -12.94726562 1.06640625 C-8.56860012 0.16047545 -4.49581296 -0.14031146 0 0 Z " fill="#FFA066" transform="translate(410,182)"/>
<path d="M0 0 C1.98 0 3.96 0 6 0 C6.50567729 2.56149628 7.00470132 5.12399465 7.5 7.6875 C7.64308594 8.40873047 7.78617187 9.12996094 7.93359375 9.87304688 C8.65571887 13.63841359 9.1824976 17.14473813 9 21 C8.34 21 7.68 21 7 21 C6.67 19.35 6.34 17.7 6 16 C3.03 16 0.06 16 -3 16 C-3.66 17.32 -4.32 18.64 -5 20 C-5.66 20 -6.32 20 -7 20 C-5.07443364 13.14381674 -2.7527517 6.56747868 0 0 Z " fill="#FF9A5C" transform="translate(260,82)"/>
<path d="M0 0 C-0.02734375 2.23046875 -0.02734375 2.23046875 -1 5 C-3.32757099 6.81762759 -5.90826307 8.03740167 -8.5625 9.3125 C-9.27341797 9.67150391 -9.98433594 10.03050781 -10.71679688 10.40039062 C-12.46994182 11.28284613 -14.23399841 12.14356361 -16 13 C-10.72 13 -5.44 13 0 13 C0 13.99 0 14.98 0 16 C-10.395 16.495 -10.395 16.495 -21 17 C-21 15.35 -21 13.7 -21 12 C-15.39 9.03 -9.78 6.06 -4 3 C-9.94 3.33 -15.88 3.66 -22 4 C-22 3.01 -22 2.02 -22 1 C-14.64206267 0.08839714 -7.41017023 -0.11459026 0 0 Z " fill="#FFA065" transform="translate(428,242)"/>
<path d="M0 0 C1.65 0 3.3 0 5 0 C5.99 6.6 6.98 13.2 8 20 C9.65 14.39 11.3 8.78 13 3 C13.66 3 14.32 3 15 3 C14.3900874 7.98844309 13.36525565 12.60155346 11.9375 17.4375 C11.57527344 18.67371094 11.21304687 19.90992188 10.83984375 21.18359375 C10.56269531 22.11300781 10.28554688 23.04242188 10 24 C8.35 23.67 6.7 23.34 5 23 C4.01 16.73 3.02 10.46 2 4 C0.72643453 8.51671483 0.72643453 8.51671483 -0.54272461 13.03466797 C-1.88888889 17.77777778 -1.88888889 17.77777778 -3 20 C-3.66 20 -4.32 20 -5 20 C-4.35346673 13.04976736 -2.13972752 6.61822697 0 0 Z " fill="#FF9F63" transform="translate(289,87)"/>
<path d="M0 0 C1.03382812 0.01933594 2.06765625 0.03867188 3.1328125 0.05859375 C4.16148438 0.05988281 5.19015625 0.06117188 6.25 0.0625 C9.61072305 0.54696787 11.53399638 1.49960487 14.2578125 3.49609375 C16.44516552 7.87079978 15.17730529 12.89862979 14.2578125 17.49609375 C7.3278125 16.50609375 0.3978125 15.51609375 -6.7421875 14.49609375 C-5.39009117 0.97513045 -5.39009117 0.97513045 0 0 Z M-2.6796875 3.62109375 C-4.18703613 6.28112075 -3.94205003 8.4981558 -3.7421875 11.49609375 C-0.33867412 13.52828863 2.5811052 13.86500414 6.5078125 14.12109375 C7.58546875 14.19585937 8.663125 14.270625 9.7734375 14.34765625 C10.59328125 14.39664063 11.413125 14.445625 12.2578125 14.49609375 C12.5878125 11.85609375 12.9178125 9.21609375 13.2578125 6.49609375 C8.65700625 2.84717845 2.91553368 0.37225565 -2.6796875 3.62109375 Z " fill="#FF9A5B" transform="translate(70.7421875,226.50390625)"/>
<path d="M0 0 C2.75 2.3125 2.75 2.3125 5 5 C5.61875 5.61875 6.2375 6.2375 6.875 6.875 C8.65063307 10.22897358 8.02005935 12.42979227 7 16 C4.875 18.5 4.875 18.5 2 20 C-1.84947289 20.28514614 -3.9846274 19.85218772 -6.96875 17.34765625 C-9.8018614 14.3229615 -11.73481417 11.71181459 -13.1875 7.8125 C-12.9386299 4.07944856 -11.60739582 2.60739582 -9 0 C-5.77509551 -1.61245225 -3.43772273 -0.81573082 0 0 Z M-8.875 2.0625 C-10.56226095 4.9683383 -10.52017158 6.68390616 -10 10 C-7.57184111 13.41254763 -5.48478855 15.67680763 -2 18 C1.32240324 17.6758631 2.60776303 17.39223697 5 15 C5.58230222 11.87012556 5.50729368 9.85715139 3.8671875 7.0859375 C1.37708405 3.91790013 -0.33619306 2.2342848 -4.1875 0.875 C-6.95060653 0.78462031 -6.95060653 0.78462031 -8.875 2.0625 Z " fill="#FF9A5D" transform="translate(131,128)"/>
<path d="M0 0 C4.5116335 0.38671144 7.56052707 2.10771594 11 5 C12.1875 7.6875 12.1875 7.6875 12 11 C10.22712399 15.10670106 8.17214717 18.82785283 5 22 C-1.12459714 22.72054084 -3.96149553 21.05327337 -9 18 C-7.69100294 15.18585648 -6.37721835 12.37397463 -5.0625 9.5625 C-4.68931641 8.76005859 -4.31613281 7.95761719 -3.93164062 7.13085938 C-3.39506836 5.98520508 -3.39506836 5.98520508 -2.84765625 4.81640625 C-2.51773682 4.10943604 -2.18781738 3.40246582 -1.84790039 2.67407227 C-1 1 -1 1 0 0 Z M1 2 C-0.17154293 4.28929053 -1.33738074 6.58118362 -2.5 8.875 C-2.83386719 9.52597656 -3.16773438 10.17695312 -3.51171875 10.84765625 C-5.36843717 14.2524471 -5.36843717 14.2524471 -6 18 C-2.87664697 19.85087587 -0.61522873 20.70541048 3 20 C7.81444743 15.62322961 8.66868552 12.40541335 9 6 C5.33019796 3.08828211 5.33019796 3.08828211 1 2 Z " fill="#FF985A" transform="translate(323,99)"/>
<path d="M0 0 C5.98827121 5.92946658 5.98827121 5.92946658 8 9 C8 9.66 8 10.32 8 11 C4.63279613 9.60667426 3.0140476 8.0210714 1 5 C-0.65 5.66 -2.3 6.32 -4 7 C-3.690625 7.763125 -3.38125 8.52625 -3.0625 9.3125 C-2.32106407 11.18789677 -1.63771783 13.08684652 -1 15 C-4.33537489 13.88820837 -5.63707344 12.52588702 -8 10 C-9.32 11.32 -10.64 12.64 -12 14 C-10.35 16.64 -8.7 19.28 -7 22 C-7.99 22 -8.98 22 -10 22 C-11.60546875 20.25 -11.60546875 20.25 -13.1875 18 C-13.71730469 17.2575 -14.24710937 16.515 -14.79296875 15.75 C-15.19128906 15.1725 -15.58960938 14.595 -16 14 C-14.46642041 9.37766153 -10.71292205 7.3643469 -6.875 4.75 C-6.21628906 4.29109375 -5.55757813 3.8321875 -4.87890625 3.359375 C-3.2579995 2.23178769 -1.62970314 1.11483609 0 0 Z " fill="#FF9D61" transform="translate(389,151)"/>
<path d="M0 0 C0.99 0 1.98 0 3 0 C4.00465729 3.12352227 5.00292927 6.24904853 6 9.375 C6.28617188 10.26445313 6.57234375 11.15390625 6.8671875 12.0703125 C7.13789063 12.92109375 7.40859375 13.771875 7.6875 14.6484375 C7.93886719 15.43395996 8.19023437 16.21948242 8.44921875 17.02880859 C9 19 9 19 9 21 C7.35 21.66 5.7 22.32 4 23 C-7.416882 13.24375538 -7.416882 13.24375538 -11 9 C-11 8.34 -11 7.68 -11 7 C-7.09521545 8.61928269 -4.43827444 11.19326046 -1.375 14.0625 C2.04209753 17.41533647 2.04209753 17.41533647 6 20 C5.566875 18.80761719 5.13375 17.61523438 4.6875 16.38671875 C4.12475139 14.8204018 3.56226502 13.25399061 3 11.6875 C2.71382812 10.90181641 2.42765625 10.11613281 2.1328125 9.30664062 C1.86210937 8.54931641 1.59140625 7.79199219 1.3125 7.01171875 C1.06113281 6.31522217 0.80976563 5.61872559 0.55078125 4.90112305 C0 3 0 3 0 0 Z " fill="#FF9F63" transform="translate(153,105)"/>
<path d="M0 0 C0 0.66 0 1.32 0 2 C-4.455 3.485 -4.455 3.485 -9 5 C-8.34 7.31 -7.68 9.62 -7 12 C-4.03 11.01 -1.06 10.02 2 9 C2 9.66 2 10.32 2 11 C0.02 11.99 -1.96 12.98 -4 14 C-3.67 15.98 -3.34 17.96 -3 20 C0.3 19.01 3.6 18.02 7 17 C7 17.99 7 18.98 7 20 C5.3767313 20.6708712 3.75132422 21.33657029 2.125 22 C1.22007812 22.37125 0.31515625 22.7425 -0.6171875 23.125 C-3 24 -3 24 -5 24 C-6.1721449 21.04380781 -7.33677476 18.08471211 -8.5 15.125 C-8.83386719 14.28324219 -9.16773438 13.44148438 -9.51171875 12.57421875 C-9.98544922 11.36572266 -9.98544922 11.36572266 -10.46875 10.1328125 C-10.76201172 9.38918457 -11.05527344 8.64555664 -11.35742188 7.87939453 C-12 6 -12 6 -12 4 C-10.56570999 3.32645501 -9.12742943 2.66140299 -7.6875 2 C-6.88699219 1.62875 -6.08648437 1.2575 -5.26171875 0.875 C-3 0 -3 0 0 0 Z " fill="#FF9C5F" transform="translate(184,92)"/>
<path d="M0 0 C0.33 0.99 0.66 1.98 1 3 C0.01 4.485 0.01 4.485 -1 6 C-1.38499891 7.65549531 -1.72793135 9.3222433 -2 11 C0.24425432 11.50549294 0.24425432 11.50549294 3 11 C4.54552765 9.62549856 4.54552765 9.62549856 6 7.9375 C7.51953125 6.27734375 7.51953125 6.27734375 9 5 C12.62333737 5 13.95494097 5.96996065 17 8 C17.6513089 12.09394163 17.13380371 13.77420624 15 17.375 C14.34 18.24125 13.68 19.1075 13 20 C12.34 19.67 11.68 19.34 11 19 C11.515625 18.278125 12.03125 17.55625 12.5625 16.8125 C14.21442982 13.5804634 14.06351675 12.38391693 13 9 C9.75091983 9.36100891 8.34484249 9.63290961 6.0625 12.0625 C4 14 4 14 0.875 14.375 C-2 14 -2 14 -4 12 C-4.55881444 7.90202743 -4.1370529 6.23127677 -2 2.625 C-1.34 1.75875 -0.68 0.8925 0 0 Z " fill="#FF9A5D" transform="translate(85,176)"/>
<path d="M0 0 C0.66 0.66 1.32 1.32 2 2 C1.34 2.556875 0.68 3.11375 0 3.6875 C-2.1957568 5.80610533 -2.1957568 5.80610533 -2.3515625 8.4375 C-2.22641366 11.06344254 -2.22641366 11.06344254 -0.4609375 12.80078125 C3.78443046 15.8774805 6.52704324 17.82094351 12 17 C12.66 15.35 13.32 13.7 14 12 C14.99 12 15.98 12 17 12 C13.375 18.75 13.375 18.75 10 21 C4.14037362 21 0.18037895 17.7849377 -4 14 C-6 11 -6 11 -5.9375 8.125 C-4.78723197 4.29077324 -2.98138921 2.59915982 0 0 Z " fill="#FFA168" transform="translate(103,149)"/>
<path d="M0 0 C1.60725635 3.21451269 1.05748185 6.43612536 1 10 C-1.31 10.33 -3.62 10.66 -6 11 C-7.85776765 7.86501708 -8.20140476 5.62528568 -8 2 C-2.25 0 -2.25 0 0 0 Z " fill="#FFF9F6" transform="translate(419,211)"/>
<path d="M0 0 C6.93359375 -0.09765625 6.93359375 -0.09765625 9 0 C10 1 10 1 10.0625 4.0625 C10.041875 5.031875 10.02125 6.00125 10 7 C6.86501708 8.85776765 4.62528568 9.20140476 1 9 C0.67 6.03 0.34 3.06 0 0 Z " fill="#FFFAF7" transform="translate(205,87)"/>
<path d="M0 0 C1.2065625 0.0309375 1.2065625 0.0309375 2.4375 0.0625 C2.7675 1.7125 3.0975 3.3625 3.4375 5.0625 C1.51944295 6.74640464 -0.40063059 8.4278812 -2.32421875 10.10546875 C-3.74928823 11.35147191 -5.16916737 12.60345485 -6.58203125 13.86328125 C-7.19433594 14.40339844 -7.80664062 14.94351563 -8.4375 15.5 C-8.99179687 15.99371094 -9.54609375 16.48742187 -10.1171875 16.99609375 C-11.5625 18.0625 -11.5625 18.0625 -13.5625 18.0625 C-13.253125 17.485 -12.94375 16.9075 -12.625 16.3125 C-11.63666636 14.21955816 -11.0456387 12.31714725 -10.5625 10.0625 C-9.86125 10.041875 -9.16 10.02125 -8.4375 10 C-4.1831376 8.61270791 -2.20942861 5.54625828 0.4375 2.0625 C-0.8825 1.7325 -2.2025 1.4025 -3.5625 1.0625 C-2.5625 0.0625 -2.5625 0.0625 0 0 Z " fill="#FF9A5D" transform="translate(407.5625,181.9375)"/>
<path d="M0 0 C2.375 1.625 2.375 1.625 4 4 C4.25 7.25 4.25 7.25 4 10 C3.01 9.67 2.02 9.34 1 9 C0.67 7.35 0.34 5.7 0 4 C-2.97 3.67 -5.94 3.34 -9 3 C-8.67 4.65 -8.34 6.3 -8 8 C-8.66 8 -9.32 8 -10 8 C-10.33 8.66 -10.66 9.32 -11 10 C-11.33 7.36 -11.66 4.72 -12 2 C-7.85791608 0.42206327 -4.43809352 -0.57888176 0 0 Z " fill="#FFA46C" transform="translate(214,84)"/>
<path d="M0 0 C6.0546875 -0.1953125 6.0546875 -0.1953125 8 0 C8.66 0.66 9.32 1.32 10 2 C9.46428571 5.53571429 9.46428571 5.53571429 8 7 C5.32941149 7.14115161 2.67567762 7.04247107 0 7 C0 4.69 0 2.38 0 0 Z " fill="#FFFCFA" transform="translate(430,375)"/>
<path d="M0 0 C-1.58667578 3.90285767 -4.13350481 6.33520982 -7.125 9.25 C-8.03507812 10.14203125 -8.94515625 11.0340625 -9.8828125 11.953125 C-10.58148438 12.62859375 -11.28015625 13.3040625 -12 14 C-11.175 14.94875 -10.35 15.8975 -9.5 16.875 C-7 19.75 -7 19.75 -7 22 C-11.28079185 20.41452154 -13.20711718 17.45520826 -16 14 C-13.71643754 11.65861457 -11.42186626 9.32833018 -9.125 7 C-8.47402344 6.33226562 -7.82304687 5.66453125 -7.15234375 4.9765625 C-6.52714844 4.34492188 -5.90195312 3.71328125 -5.2578125 3.0625 C-4.6817627 2.47597656 -4.10571289 1.88945312 -3.51220703 1.28515625 C-2 0 -2 0 0 0 Z " fill="#FF9757" transform="translate(371,130)"/>
<path d="M0 0 C-1.5830577 4.2742558 -4.50568404 6.26531794 -8 9 C-9.89213369 6.61426621 -11.02391783 4.92824652 -12 2 C-10.56342755 1.66269158 -9.12569907 1.33030409 -7.6875 1 C-6.88699219 0.814375 -6.08648437 0.62875 -5.26171875 0.4375 C-3 0 -3 0 0 0 Z " fill="#FFF8F3" transform="translate(408,184)"/>
<path d="M0 0 C0.66 0 1.32 0 2 0 C3.17571451 3.67410785 3.07366746 7.16929183 3 11 C0.69 11 -1.62 11 -4 11 C-3.5247412 9.35303396 -3.04468109 7.70745272 -2.5625 6.0625 C-2.29566406 5.14597656 -2.02882813 4.22945313 -1.75390625 3.28515625 C-1 1 -1 1 0 0 Z " fill="#FFF8F5" transform="translate(262,84)"/>
<path d="M0 0 C6.95776959 1.36874156 13.38603107 3.4533129 20 6 C20 6.66 20 7.32 20 8 C13.45435429 7.4049413 6.98470021 5.73748117 1 3 C0.67 2.01 0.34 1.02 0 0 Z " fill="#FF9E63" transform="translate(72,205)"/>
<path d="M0 0 C0.99 0 1.98 0 3 0 C3.67031719 1.9570868 4.33614683 3.91571113 5 5.875 C5.556875 7.51082031 5.556875 7.51082031 6.125 9.1796875 C7 12 7 12 7 14 C6.01 14 5.02 14 4 14 C3.32739649 12.23141309 2.66211605 10.46003984 2 8.6875 C1.62875 7.70136719 1.2575 6.71523437 0.875 5.69921875 C0 3 0 3 0 0 Z " fill="#FFA770" transform="translate(153,105)"/>
<path d="M0 0 C0.97735904 2.59444399 1.13177227 3.67418334 0.07421875 6.2890625 C-0.38339844 7.05992188 -0.84101563 7.83078125 -1.3125 8.625 C-1.76238281 9.40101562 -2.21226562 10.17703125 -2.67578125 10.9765625 C-4 13 -4 13 -6 15 C-6.99 14.67 -7.98 14.34 -9 14 C-8.2575 12.989375 -7.515 11.97875 -6.75 10.9375 C-4.22861737 7.41762112 -2.08868447 3.79057551 0 0 Z " fill="#FFA066" transform="translate(334,106)"/>
<path d="M0 0 C0.66 0.33 1.32 0.66 2 1 C2 1.66 2 2.32 2 3 C1.34 3 0.68 3 0 3 C-0.33 5.64 -0.66 8.28 -1 11 C-0.34 11.33 0.32 11.66 1 12 C-0.65 12.66 -2.3 13.32 -4 14 C-3.91231752 12.4156683 -3.80412671 10.83246433 -3.6875 9.25 C-3.60048828 7.92742187 -3.60048828 7.92742187 -3.51171875 6.578125 C-2.9358819 3.67696226 -1.92403852 2.20774393 0 0 Z " fill="#FFA66F" transform="translate(68,227)"/>
<path d="M0 0 C0.33 0 0.66 0 1 0 C1.33 3.96 1.66 7.92 2 12 C1.34 12 0.68 12 0 12 C-0.33 10.35 -0.66 8.7 -1 7 C-1.66 7 -2.32 7 -3 7 C-3 6.34 -3 5.68 -3 5 C-4.32 4.67 -5.64 4.34 -7 4 C-5.35 4 -3.7 4 -2 4 C-1.67 3.01 -1.34 2.02 -1 1 C-0.67 0.67 -0.34 0.34 0 0 Z " fill="#FFA771" transform="translate(267,91)"/>
<path d="M0 0 C0.66 0.66 1.32 1.32 2 2 C-1.95623632 8.70459519 -1.95623632 8.70459519 -6.3125 9.9375 C-7.199375 9.958125 -8.08625 9.97875 -9 10 C-7.71034824 8.62437146 -6.37310707 7.29233607 -5 6 C-4.34 6 -3.68 6 -3 6 C-2.690625 5.195625 -2.38125 4.39125 -2.0625 3.5625 C-1 1 -1 1 0 0 Z " fill="#FFA974" transform="translate(118,160)"/>
<path d="M0 0 C1.35439668 2.70879335 1.06501451 5.00933268 1 8 C0.01 7.67 -0.98 7.34 -2 7 C-2.33 5.35 -2.66 3.7 -3 2 C-5.97 1.505 -5.97 1.505 -9 1 C-9 0.67 -9 0.34 -9 0 C-3.375 -1.125 -3.375 -1.125 0 0 Z " fill="#FFAD7B" transform="translate(217,86)"/>
<path d="M0 0 C0.99 0 1.98 0 3 0 C3.23053497 2.84326464 3.35903101 4.46145349 1.75 6.875 C0 8 0 8 -2.1875 7.6875 C-2.785625 7.460625 -3.38375 7.23375 -4 7 C-2.68 6.34 -1.36 5.68 0 5 C0 3.35 0 1.7 0 0 Z " fill="#FFA770" transform="translate(420,216)"/>
<path d="M0 0 C2 3 2 3 2 7 C-0.97 6.67 -3.94 6.34 -7 6 C-4 4 -4 4 0 4 C0 2.68 0 1.36 0 0 Z " fill="#FFA36A" transform="translate(83,237)"/>
<path d="M0 0 C2.97 0.99 5.94 1.98 9 3 C8.67 3.66 8.34 4.32 8 5 C5.75 5.25 5.75 5.25 3 5 C0.6875 3 0.6875 3 -1 1 C-0.67 0.67 -0.34 0.34 0 0 Z " fill="#FF9B5D" transform="translate(104,164)"/>
<path d="M0 0 C3.3 0 6.6 0 10 0 C10 0.99 10 1.98 10 3 C8.72125 3.061875 7.4425 3.12375 6.125 3.1875 C5.40570313 3.22230469 4.68640625 3.25710938 3.9453125 3.29296875 C3.30335938 3.19628906 2.66140625 3.09960938 2 3 C1.34 2.01 0.68 1.02 0 0 Z " fill="#FFB282" transform="translate(418,255)"/>
<path d="M0 0 C0.33 0.99 0.66 1.98 1 3 C1.66 3.33 2.32 3.66 3 4 C-0.625 8.875 -0.625 8.875 -4 10 C-4 9.01 -4 8.02 -4 7 C-3.01 6.34 -2.02 5.68 -1 5 C-0.27034634 2.43717258 -0.27034634 2.43717258 0 0 Z " fill="#FFA670" transform="translate(136,138)"/>
<path d="M0 0 C1.32 0.33 2.64 0.66 4 1 C4.33 3.97 4.66 6.94 5 10 C3.0549 7.08235 2.54723683 5.37462715 2 2 C1.34 2 0.68 2 0 2 C0 1.34 0 0.68 0 0 Z " fill="#FF9452" transform="translate(417,209)"/>
<path d="M0 0 C0.99 0.33 1.98 0.66 3 1 C2.34 2.98 1.68 4.96 1 7 C0.34 7 -0.32 7 -1 7 C-0.67 4.69 -0.34 2.38 0 0 Z " fill="#FFA46C" transform="translate(285,100)"/>
<path d="M0 0 C-4.625 3 -4.625 3 -8 3 C-7.67 2.01 -7.34 1.02 -7 0 C-2.25 -1.125 -2.25 -1.125 0 0 Z " fill="#FF9A5C" transform="translate(408,213)"/>
</svg>
