<?xml version="1.0" encoding="UTF-8"?>
<svg version="1.1" xmlns="http://www.w3.org/2000/svg" width="300" height="300">
<path d="M0 0 C99 0 198 0 300 0 C300 99 300 198 300 300 C201 300 102 300 0 300 C0 201 0 102 0 0 Z " fill="#FCFCFC" transform="translate(0,0)"/>
<path d="M0 0 C2.09430328 2.66595587 3.76390364 5.28907984 5.26171875 8.328125 C5.65810547 9.12734375 6.05449219 9.9265625 6.46289062 10.75 C6.86701172 11.575 7.27113281 12.4 7.6875 13.25 C8.31108398 14.51070312 8.31108398 14.51070312 8.94726562 15.796875 C9.96849759 17.86281553 10.98593626 19.93053408 12 22 C15.85025879 21.39644592 18.86101159 20.23227397 22.3125 18.4375 C23.19550781 17.98246094 24.07851562 17.52742188 24.98828125 17.05859375 C25.98408203 16.53458984 25.98408203 16.53458984 27 16 C26.7109375 17.4453125 26.421875 18.890625 26.1328125 20.3359375 C25.95008789 21.25084961 25.76736328 22.16576172 25.57910156 23.10839844 C25.20807708 24.96101815 24.83520063 26.81326852 24.45996094 28.66503906 C23.92406105 31.31690464 23.3988683 33.97073395 22.875 36.625 C22.69324219 37.51445313 22.51148438 38.40390625 22.32421875 39.3203125 C21.28074392 44.65537179 20.80993724 49.56420495 21 55 C22.65 55 24.3 55 26 55 C26.309375 54.20335938 26.309375 54.20335938 26.625 53.390625 C28.57961192 49.99226564 31.22123717 47.48944072 34 44.75 C34.5465625 44.19570312 35.093125 43.64140625 35.65625 43.0703125 C39.7466133 39 39.7466133 39 42 39 C46 45.625 46 45.625 46 49 C52.27 47.68 58.54 46.36 65 45 C63.0625 53.0625 63.0625 53.0625 62.45727539 55.55883789 C61.3950613 60.02762877 60.57498878 64.44245737 60 69 C61.98 69.99 63.96 70.98 66 72 C64.47229036 75.75526392 62.21377694 77.85030625 59.1875 80.5 C58.33542969 81.2528125 57.48335938 82.005625 56.60546875 82.78125 C55.74566406 83.5134375 54.88585937 84.245625 54 85 C53.14664063 85.7528125 52.29328125 86.505625 51.4140625 87.28125 C48.38847851 89.43538747 46.45802676 89.20533766 42.8671875 88.625 C37.8023103 87.52093958 32.78251595 86.25544472 27.76953125 84.9375 C18.62054247 82.66210383 10.19881004 81.99398269 1.10546875 84.7578125 C-1.70832243 85.08147679 -3.40686928 84.08211069 -6 83 C-18.69299901 81.52362398 -31.45802036 85.1830639 -43.29296875 89.42578125 C-46 90 -46 90 -48.22265625 89.19921875 C-48.80917969 88.80347656 -49.39570312 88.40773438 -50 88 C-50.7425 87.505 -51.485 87.01 -52.25 86.5 C-52.8275 86.005 -53.405 85.51 -54 85 C-54 84.34 -54 83.68 -54 83 C-54.57234375 82.7421875 -55.1446875 82.484375 -55.734375 82.21875 C-58.21128995 80.88634058 -60.1341166 79.34943882 -62.25 77.5 C-62.95640625 76.8915625 -63.6628125 76.283125 -64.390625 75.65625 C-66 74 -66 74 -66 72 C-64.02 71.01 -62.04 70.02 -60 69 C-60.47724437 63.08216979 -61.48467326 57.89003784 -63.37890625 52.26171875 C-64 50 -64 50 -64 46 C-57.91766294 46.67581523 -51.98685848 47.73638028 -46 49 C-45.566875 47.63875 -45.566875 47.63875 -45.125 46.25 C-44.23468224 43.67797092 -43.28505587 41.38653234 -42 39 C-38.97635381 40.34672477 -36.95969814 41.82607017 -34.6875 44.22265625 C-33.78644531 45.15368164 -33.78644531 45.15368164 -32.8671875 46.10351562 C-31.62044357 47.41155345 -30.37565526 48.721458 -29.1328125 50.03320312 C-28.53210938 50.65259766 -27.93140625 51.27199219 -27.3125 51.91015625 C-26.77238281 52.47871338 -26.23226562 53.04727051 -25.67578125 53.63305664 C-23.79602333 55.16638482 -22.36904099 55.59451463 -20 56 C-20.57630337 48.22919976 -21.95530185 40.74230887 -23.5625 33.125 C-24.02569965 30.92001656 -24.4854849 28.71431235 -24.94140625 26.5078125 C-25.24606812 25.06365967 -25.24606812 25.06365967 -25.55688477 23.59033203 C-26 21 -26 21 -26 17 C-22.84718746 17.95317589 -20.13984436 18.91544295 -17.3125 20.625 C-15.01863296 22.2555377 -15.01863296 22.2555377 -12 22 C-10.72817607 19.62552587 -9.45751576 17.25044103 -8.1875 14.875 C-7.83107422 14.20984375 -7.47464844 13.5446875 -7.10742188 12.859375 C-5.4624593 9.78072945 -3.85069104 6.69863616 -2.30078125 3.5703125 C-1 1 -1 1 0 0 Z " fill="#E23940" transform="translate(149,21)"/>
<path d="M0 0 C2.8901219 0.31547105 4.54974461 -0.65037444 7.21875 -1.7578125 C20.63458214 -3.59850715 37.28162737 -0.14010461 49.21875 6.2421875 C49.21875 7.2321875 49.21875 8.2221875 49.21875 9.2421875 C49.87875 9.2421875 50.53875 9.2421875 51.21875 9.2421875 C53.79904767 18.57679378 56.173652 27.95864779 58.46875 37.3671875 C58.73896973 38.45765381 59.00918945 39.54812012 59.28759766 40.67163086 C59.53815918 41.70811768 59.7887207 42.74460449 60.046875 43.8125 C60.3857373 45.20106201 60.3857373 45.20106201 60.73144531 46.61767578 C61.21539336 49.22410943 61.30837952 51.59811661 61.21875 54.2421875 C57.07879552 53.75707338 52.97457893 53.2216037 48.87109375 52.48828125 C36.12748423 50.26588876 23.15722622 49.14921498 10.21875 50.2421875 C9.88875 50.5721875 9.55875 50.9021875 9.21875 51.2421875 C7.88831375 51.3405596 6.55281656 51.37297342 5.21875 51.375 C4.414375 51.37628906 3.61 51.37757813 2.78125 51.37890625 C1.935625 51.37503906 1.09 51.37117188 0.21875 51.3671875 C-0.626875 51.37105469 -1.4725 51.37492187 -2.34375 51.37890625 C-3.148125 51.37761719 -3.9525 51.37632812 -4.78125 51.375 C-5.52375 51.37387207 -6.26625 51.37274414 -7.03125 51.37158203 C-8.78125 51.2421875 -8.78125 51.2421875 -9.78125 50.2421875 C-23.7346291 48.98185765 -37.73868931 50.67609859 -51.49560547 52.87841797 C-54.58592227 53.37025433 -57.68237633 53.80792357 -60.78125 54.2421875 C-60.08887296 49.66402096 -59.06709612 45.21950194 -57.90625 40.7421875 C-56.55709794 35.44808535 -55.29367888 30.14944258 -54.15625 24.8046875 C-53.91648437 23.67804688 -53.67671875 22.55140625 -53.4296875 21.390625 C-53.01965256 19.39973248 -52.62675822 17.40516489 -52.2578125 15.40625 C-51.85857005 13.33149827 -51.33424347 11.28135093 -50.78125 9.2421875 C-49.79125 8.9121875 -48.80125 8.5821875 -47.78125 8.2421875 C-47.45125 7.2521875 -47.12125 6.2621875 -46.78125 5.2421875 C-44.92700195 4.36669922 -44.92700195 4.36669922 -42.51953125 3.671875 C-41.64748047 3.41535156 -40.77542969 3.15882812 -39.87695312 2.89453125 C-38.95849609 2.63800781 -38.04003906 2.38148437 -37.09375 2.1171875 C-36.19462891 1.85292969 -35.29550781 1.58867188 -34.36914062 1.31640625 C-22.89130186 -2.00147231 -11.67525943 -3.23868498 0 0 Z " fill="#EEEEEE" transform="translate(148.78125,108.7578125)"/>
<path d="M0 0 C1.49761762 0.09540112 2.99934828 0.13073486 4.5 0.1328125 C5.386875 0.13410156 6.27375 0.13539063 7.1875 0.13671875 C8.5796875 0.13091797 8.5796875 0.13091797 10 0.125 C10.928125 0.12886719 11.85625 0.13273438 12.8125 0.13671875 C14.1428125 0.13478516 14.1428125 0.13478516 15.5 0.1328125 C16.72203125 0.13112061 16.72203125 0.13112061 17.96875 0.12939453 C20.06850952 0.12801503 20.06850952 0.12801503 22 -1 C31.26429586 -1.81513263 40.54970396 -0.64039434 49.75 0.375 C51.47174438 0.56400879 51.47174438 0.56400879 53.22827148 0.75683594 C59.89782779 1.5293082 66.4432066 2.55140611 73 4 C59.63535323 25.16069072 38.00446665 43.0982803 14 51 C7.21326035 51.72466214 2.76863016 50.02736791 -3.25 47 C-4.0855542 46.58919189 -4.9211084 46.17838379 -5.78198242 45.75512695 C-20.8777248 38.1861051 -34.27852106 27.92237642 -45.25 15.0625 C-45.70383057 14.53116455 -46.15766113 13.9998291 -46.62524414 13.45239258 C-49.08069584 10.45970719 -50.78105136 7.67716172 -52 4 C-12.7852194 -6.3926097 -12.7852194 -6.3926097 0 0 Z " fill="#020202" transform="translate(139,163)"/>
<path d="M0 0 C-1.46209812 3.19712123 -2.93156153 6.39039992 -4.4140625 9.578125 C-5.34227201 11.58086277 -6.25923717 13.58901507 -7.1484375 15.609375 C-9.47504135 20.70929063 -9.47504135 20.70929063 -11.70703125 21.9453125 C-15.27994415 22.03052678 -17.70229324 20.0489636 -20.5625 18.125 C-25.05895816 15.13963488 -25.05895816 15.13963488 -30 13 C-29.81824219 13.59683594 -29.63648438 14.19367187 -29.44921875 14.80859375 C-27.53377086 21.41934468 -26.20012563 28.02534037 -25.09057617 34.80834961 C-24.50181394 38.36053448 -23.80599593 41.79685529 -22.84765625 45.26953125 C-22.05584556 48.75422805 -21.99777806 49.79775708 -23 53 C-27.4195093 48.70138913 -31.53328756 44.29195668 -35.421875 39.50390625 C-36.99863625 37.65506057 -36.99863625 37.65506057 -40 38 C-41.98 41.63 -43.96 45.26 -46 49 C-53.59457278 47.85198318 -60.68055177 46.30115553 -68 44 C-67.78794922 44.70608398 -67.57589844 45.41216797 -67.35742188 46.13964844 C-66.39930545 49.3414419 -65.44956933 52.54566181 -64.5 55.75 C-64.16613281 56.86117187 -63.83226563 57.97234375 -63.48828125 59.1171875 C-63.17246094 60.18710938 -62.85664062 61.25703125 -62.53125 62.359375 C-62.23798828 63.34389648 -61.94472656 64.32841797 -61.64257812 65.34277344 C-61 68 -61 68 -61 72 C-62.28913487 72.67154933 -63.58140204 73.33708859 -64.875 74 C-65.59429687 74.37125 -66.31359375 74.7425 -67.0546875 75.125 C-69 76 -69 76 -71 76 C-67.23712605 79.81210782 -63.37353773 83.49243123 -59.4375 87.125 C-58.87353516 87.64964844 -58.30957031 88.17429687 -57.72851562 88.71484375 C-57.17744141 89.22402344 -56.62636719 89.73320313 -56.05859375 90.2578125 C-55.56673584 90.7130127 -55.07487793 91.16821289 -54.56811523 91.63720703 C-52.780005 93.1911898 -50.90874292 94.59800527 -49 96 C-49.16363037 96.57943359 -49.32726074 97.15886719 -49.49584961 97.75585938 C-51.16431801 103.76121253 -52.70732545 109.79083003 -54.19140625 115.84375 C-54.38374847 116.62572754 -54.5760907 117.40770508 -54.77426147 118.21337891 C-55.57582804 121.4737866 -56.37662509 124.73434209 -57.16870117 127.99707031 C-57.75424429 130.40564703 -58.34718695 132.81230132 -58.94140625 135.21875 C-59.20710167 136.3249469 -59.20710167 136.3249469 -59.47816467 137.45349121 C-60.30476619 140.77739151 -61.07909916 143.11864874 -63 146 C-70.49822417 133.2161424 -73.16898783 118.44108862 -73.11352539 103.77197266 C-73.11367142 102.75672516 -73.11381744 101.74147766 -73.1139679 100.69546509 C-73.11327321 97.35164222 -73.10550161 94.00787559 -73.09765625 90.6640625 C-73.09579049 88.34093252 -73.09436733 86.01780215 -73.09336853 83.69467163 C-73.08955578 77.58895781 -73.07973609 71.48326788 -73.06866455 65.37756348 C-73.05842373 59.14363936 -73.05386519 52.90971136 -73.04882812 46.67578125 C-73.03811271 34.45051035 -73.0210512 22.22525716 -73 10 C-71.41423793 9.52155358 -69.82825784 9.04382973 -68.2421875 8.56640625 C-67.35901855 8.30029541 -66.47584961 8.03418457 -65.56591797 7.76000977 C-44.6007158 1.55024056 -21.77267921 -0.32550517 0 0 Z " fill="#030303" transform="translate(146,16)"/>
<path d="M0 0 C1.89575251 -0.02721176 3.79161979 -0.04649136 5.6875 -0.0625 C6.74324219 -0.07410156 7.79898438 -0.08570313 8.88671875 -0.09765625 C11.75932873 -0.00754929 14.19523657 0.42266913 17 1 C20.03671412 1.34364313 23.0813518 1.60059189 26.125 1.875 C33.02808304 2.53900121 39.8946446 3.32374062 46.75 4.375 C47.79051514 4.52751221 47.79051514 4.52751221 48.85205078 4.68310547 C54.08277792 5.51796162 59.18299712 6.76188166 64.31347656 8.06103516 C65.05397247 8.24741043 65.79446838 8.43378571 66.55740356 8.62580872 C68.3719029 9.08268059 70.18599314 9.54117669 72 10 C72.09311904 23.65740622 72.16397642 37.31473558 72.20724869 50.9723959 C72.22802839 57.31577797 72.25616868 63.65894113 72.30175781 70.00219727 C72.34556053 76.13602378 72.36920921 82.26964115 72.37950897 88.40361214 C72.38683899 90.73131663 72.40115071 93.05901106 72.42292023 95.38662529 C72.58776121 113.76015139 71.38556303 129.76297596 62 146 C59.37299694 143.37299694 59.19868473 141.31671357 58.37890625 137.69921875 C58.16076515 136.75088921 58.16076515 136.75088921 57.93821716 135.78340149 C57.47279572 133.75292623 57.01748319 131.72033692 56.5625 129.6875 C56.26043675 128.3611751 55.95770893 127.03500137 55.65429688 125.70898438 C54.4819625 120.5742248 53.31852252 115.43761471 52.17919922 110.29541016 C51.92283691 109.15249512 51.66647461 108.00958008 51.40234375 106.83203125 C51.17925537 105.82503174 50.95616699 104.81803223 50.72631836 103.78051758 C50.01817282 101.06956984 49.09973586 98.57409408 48 96 C48.46148437 95.59910156 48.92296875 95.19820313 49.3984375 94.78515625 C59.94115628 85.6528379 59.94115628 85.6528379 70 76 C69.0925 75.71125 68.185 75.4225 67.25 75.125 C64.66901709 74.23158284 62.41157674 73.24772883 60 72 C61.391453 62.38443671 64.15519377 53.26190729 67 44 C64.35307023 44.64158952 61.70750071 45.28804783 59.0625 45.9375 C57.93038086 46.21110352 57.93038086 46.21110352 56.77539062 46.49023438 C53.08720179 47.13839179 53.08720179 47.13839179 50 49 C48.33382885 49.04063832 46.66611905 49.042721 45 49 C43.99491199 47.21118264 42.99607264 45.41885304 42 43.625 C41.443125 42.62726562 40.88625 41.62953125 40.3125 40.6015625 C39 38 39 38 39 36 C34.68918205 39.36454084 31.21958313 42.96756228 27.6796875 47.12890625 C25.65699774 49.38208857 23.44595581 51.22112305 21 53 C21.73858764 47.40783643 22.75756025 41.90305261 23.875 36.375 C24.05063477 35.50069336 24.22626953 34.62638672 24.40722656 33.72558594 C25.81346947 26.78624932 27.34183482 19.88389786 29 13 C27.27009975 13.93614567 25.54111304 14.87397958 23.8125 15.8125 C22.84957031 16.33457031 21.88664062 16.85664062 20.89453125 17.39453125 C17.99807685 18.94641142 17.99807685 18.94641142 15.38671875 20.76171875 C13 22 13 22 10.98242188 21.79125977 C8.49261323 20.7974827 8.05301582 19.96118931 6.89453125 17.578125 C6.37922852 16.53398438 6.37922852 16.53398438 5.85351562 15.46875 C5.50998047 14.7365625 5.16644531 14.004375 4.8125 13.25 C4.45736328 12.53328125 4.10222656 11.8165625 3.73632812 11.078125 C1.96172723 7.41443282 0.53790902 4.07847433 0 0 Z " fill="#030303" transform="translate(153,16)"/>
<path d="M0 0 C0 13.2 0 26.4 0 40 C-2.31 39.67 -4.62 39.34 -7 39 C-21.01735458 38.09766029 -33.85901919 39.71981772 -47.1875 44.1953125 C-50 45 -50 45 -54 45 C-53.25446882 38.3282567 -52.03713709 31.85427205 -50.55981445 25.30810547 C-49.71315566 21.53059188 -48.99086871 17.9103715 -48.59765625 14.05078125 C-48.17546648 10.52449143 -47.77851447 8.08055689 -46 5 C-41.23720993 2.15446046 -36.40912119 1.02586781 -31 0 C-29.30617188 -0.35964844 -29.30617188 -0.35964844 -27.578125 -0.7265625 C-18.35499987 -2.41371954 -8.8066467 -3.52265868 0 0 Z " fill="#F5F5F5" transform="translate(148,111)"/>
<path d="M0 0 C2.8901219 0.31547105 4.54974461 -0.65037444 7.21875 -1.7578125 C20.63458214 -3.59850715 37.28162737 -0.14010461 49.21875 6.2421875 C49.21875 7.2321875 49.21875 8.2221875 49.21875 9.2421875 C49.87875 9.2421875 50.53875 9.2421875 51.21875 9.2421875 C53.79904767 18.57679378 56.173652 27.95864779 58.46875 37.3671875 C58.73896973 38.45765381 59.00918945 39.54812012 59.28759766 40.67163086 C59.53815918 41.70811768 59.7887207 42.74460449 60.046875 43.8125 C60.3857373 45.20106201 60.3857373 45.20106201 60.73144531 46.61767578 C61.21539336 49.22410943 61.30837952 51.59811661 61.21875 54.2421875 C57.07879552 53.75707338 52.97457893 53.2216037 48.87109375 52.48828125 C36.12748423 50.26588876 23.15722622 49.14921498 10.21875 50.2421875 C9.88875 50.5721875 9.55875 50.9021875 9.21875 51.2421875 C7.88831375 51.3405596 6.55281656 51.37297342 5.21875 51.375 C4.414375 51.37628906 3.61 51.37757813 2.78125 51.37890625 C1.935625 51.37503906 1.09 51.37117188 0.21875 51.3671875 C-0.626875 51.37105469 -1.4725 51.37492187 -2.34375 51.37890625 C-3.148125 51.37761719 -3.9525 51.37632812 -4.78125 51.375 C-5.52375 51.37387207 -6.26625 51.37274414 -7.03125 51.37158203 C-8.78125 51.2421875 -8.78125 51.2421875 -9.78125 50.2421875 C-23.7346291 48.98185765 -37.73868931 50.67609859 -51.49560547 52.87841797 C-54.58592227 53.37025433 -57.68237633 53.80792357 -60.78125 54.2421875 C-60.08887296 49.66402096 -59.06709612 45.21950194 -57.90625 40.7421875 C-56.55709794 35.44808535 -55.29367888 30.14944258 -54.15625 24.8046875 C-53.91648437 23.67804688 -53.67671875 22.55140625 -53.4296875 21.390625 C-53.01965256 19.39973248 -52.62675822 17.40516489 -52.2578125 15.40625 C-51.85857005 13.33149827 -51.33424347 11.28135093 -50.78125 9.2421875 C-49.79125 8.9121875 -48.80125 8.5821875 -47.78125 8.2421875 C-47.45125 7.2521875 -47.12125 6.2621875 -46.78125 5.2421875 C-44.92700195 4.36669922 -44.92700195 4.36669922 -42.51953125 3.671875 C-41.64748047 3.41535156 -40.77542969 3.15882812 -39.87695312 2.89453125 C-38.95849609 2.63800781 -38.04003906 2.38148437 -37.09375 2.1171875 C-36.19462891 1.85292969 -35.29550781 1.58867188 -34.36914062 1.31640625 C-22.89130186 -2.00147231 -11.67525943 -3.23868498 0 0 Z M-31.78125 2.2421875 C-33.10674984 2.38821152 -34.43227149 2.53403769 -35.7578125 2.6796875 C-39.97884692 3.35059051 -43.68372016 4.13549939 -46.78125 7.2421875 C-49.80247154 13.51755007 -50.49749901 20.63036614 -51.39013672 27.46728516 C-51.89325392 31.036842 -52.70564669 34.43701214 -53.59375 37.9296875 C-54.41795852 41.29482613 -54.78125 43.72703897 -54.78125 47.2421875 C-49.87457047 46.49686909 -45.09928258 45.41070858 -40.28125 44.2421875 C-32.36814605 42.32301642 -25.00604205 41.07654538 -16.84375 41.1171875 C-15.68456055 41.11138672 -15.68456055 41.11138672 -14.50195312 41.10546875 C-13.35823242 41.10740234 -13.35823242 41.10740234 -12.19140625 41.109375 C-11.51215088 41.11050293 -10.83289551 41.11163086 -10.13305664 41.11279297 C-6.99787937 41.28528793 -3.88961118 41.7981359 -0.78125 42.2421875 C-0.78125 29.0421875 -0.78125 15.8421875 -0.78125 2.2421875 C-10.69629144 -1.72382907 -21.52478242 0.17681188 -31.78125 2.2421875 Z M1.21875 2.2421875 C1.21875 15.4421875 1.21875 28.6421875 1.21875 42.2421875 C4.68375 41.7471875 4.68375 41.7471875 8.21875 41.2421875 C23.14347443 40.51291119 36.93107563 42.4468207 51.05078125 47.21875 C53.98107834 48.34465888 53.98107834 48.34465888 56.21875 48.2421875 C54.80933819 40.03340002 53.08901961 31.91999105 51.21875 23.8046875 C50.82816406 22.06928711 50.82816406 22.06928711 50.4296875 20.29882812 C50.17445313 19.18830078 49.91921875 18.07777344 49.65625 16.93359375 C49.42808594 15.93529541 49.19992188 14.93699707 48.96484375 13.90844727 C48.27544976 11.44481121 47.55022718 9.422152 46.21875 7.2421875 C42.74104622 5.42053314 38.96017301 4.41078106 35.21875 3.2421875 C34.38085938 2.93925781 33.54296875 2.63632813 32.6796875 2.32421875 C26.72026825 0.35927092 21.06846813 -0.03781723 14.84375 -0.0703125 C14.07023193 -0.07579102 13.29671387 -0.08126953 12.49975586 -0.08691406 C7.92763492 -0.02915886 5.72100159 0.44128686 1.21875 2.2421875 Z " fill="#0A0A0A" transform="translate(148.78125,108.7578125)"/>
<path d="M0 0 C0.845625 -0.00773438 1.69125 -0.01546875 2.5625 -0.0234375 C5.55321233 0.46542894 6.80345981 1.30102698 9 3.375 C9.54589844 5.64331055 9.54589844 5.64331055 9.609375 8.26171875 C9.64160156 9.19951172 9.67382812 10.13730469 9.70703125 11.10351562 C9.72121094 12.07998047 9.73539063 13.05644531 9.75 14.0625 C9.77964844 15.05056641 9.80929688 16.03863281 9.83984375 17.05664062 C9.91055492 19.49617596 9.96324265 21.93475525 10 24.375 C12.31 24.705 14.62 25.035 17 25.375 C17 17.785 17 10.195 17 2.375 C15.68 2.375 14.36 2.375 13 2.375 C13 1.715 13 1.055 13 0.375 C16.3 0.375 19.6 0.375 23 0.375 C23.495 1.86 23.495 1.86 24 3.375 C24.37125 2.88 24.7425 2.385 25.125 1.875 C27.79160885 -0.25828708 29.67893663 0.02169539 33 0.375 C35 2.375 35 2.375 35.125 5.5 C35.08375 6.44875 35.0425 7.3975 35 8.375 C33.35 8.375 31.7 8.375 30 8.375 C30 6.395 30 4.415 30 2.375 C28.00136244 2.95444932 28.00136244 2.95444932 26 4.375 C24.07678374 8.93576999 23.60255021 13.35767047 23.375 18.25 C23.33632812 18.93835938 23.29765625 19.62671875 23.2578125 20.3359375 C23.16451834 22.01523246 23.08121762 23.69507767 23 25.375 C24.32 25.375 25.64 25.375 27 25.375 C27 26.035 27 26.695 27 27.375 C23.56257082 27.43302698 20.12526747 27.46860486 16.6875 27.5 C15.71103516 27.51675781 14.73457031 27.53351563 13.72851562 27.55078125 C12.32182617 27.56044922 12.32182617 27.56044922 10.88671875 27.5703125 C10.02264404 27.58078613 9.15856934 27.59125977 8.26831055 27.60205078 C6 27.375 6 27.375 3 25.375 C2.34 26.035 1.68 26.695 1 27.375 C-1.27734375 27.7109375 -1.27734375 27.7109375 -3.9375 27.75 C-5.25041016 27.79253906 -5.25041016 27.79253906 -6.58984375 27.8359375 C-9 27.375 -9 27.375 -10.79296875 25.57421875 C-12.54712506 22.3781346 -12.39043151 19.95395553 -12 16.375 C-9.80166038 13.45333573 -7.45624053 12.65956765 -4 11.6875 C-2.700625 11.31044922 -2.700625 11.31044922 -1.375 10.92578125 C1 10.375 1 10.375 4 10.375 C3.67 8.065 3.34 5.755 3 3.375 C0.69 3.045 -1.62 2.715 -4 2.375 C-3.979375 3.179375 -3.95875 3.98375 -3.9375 4.8125 C-4 7.375 -4 7.375 -5 8.375 C-6.66617115 8.41563832 -8.33388095 8.417721 -10 8.375 C-9.67903107 5.40603738 -9.47142128 3.8220008 -7.265625 1.73046875 C-4.61898588 0.14704845 -3.06251917 -0.02801085 0 0 Z " fill="#0A0A0A" transform="translate(100,233.625)"/>
<path d="M0 0 C3.66883017 1.63059119 6.12234547 3.4324564 8 7 C9.53924324 13.09777128 9.17154324 17.42245844 6 23 C4.5 25.4375 4.5 25.4375 2 27 C-1.77374891 27.61826489 -5.23020754 27.65999334 -9 27 C-12.22344672 24.5659688 -13.7746971 22.33795435 -16 19 C-16.77520227 13.15074651 -16.48182551 7.92258089 -13 3 C-9.02519946 -0.40697189 -5.02626822 -0.75445 0 0 Z " fill="#1C1C1C" transform="translate(203,234)"/>
<path d="M0 0 C2.234375 1.35546875 2.234375 1.35546875 4 4 C4.49214375 7.59517124 4.37532223 11.13011567 4.25 14.75 C4.23195312 15.73355469 4.21390625 16.71710938 4.1953125 17.73046875 C4.14824126 20.15463783 4.08250742 22.57682059 4 25 C5.32 25 6.64 25 8 25 C8 25.66 8 26.32 8 27 C3.38 27 -1.24 27 -6 27 C-6 26.34 -6 25.68 -6 25 C-4.68 25 -3.36 25 -2 25 C-2 17.74 -2 10.48 -2 3 C-8.3951847 2.37022947 -8.3951847 2.37022947 -10.90551758 4.22192383 C-12.25894343 6.42067477 -12.42530179 7.87399331 -12.51171875 10.44921875 C-12.54716797 11.29677734 -12.58261719 12.14433594 -12.61914062 13.01757812 C-12.65297852 14.33918945 -12.65297852 14.33918945 -12.6875 15.6875 C-12.73874023 17.02651367 -12.73874023 17.02651367 -12.79101562 18.39257812 C-12.87345648 20.59492671 -12.94261551 22.79687938 -13 25 C-11.68 25 -10.36 25 -9 25 C-9 25.66 -9 26.32 -9 27 C-13.95 27 -18.9 27 -24 27 C-24 26.34 -24 25.68 -24 25 C-22.35 25 -20.7 25 -19 25 C-19 17.41 -19 9.82 -19 2 C-20.32 1.67 -21.64 1.34 -23 1 C-19.7 1 -16.4 1 -13 1 C-12.67 1.66 -12.34 2.32 -12 3 C-11.505 2.505 -11.01 2.01 -10.5 1.5 C-7.12216256 -0.52670246 -3.84893526 -0.95471636 0 0 Z " fill="#262627" transform="translate(235,234)"/>
<path d="M0 0 C1.9140625 0.82421875 1.9140625 0.82421875 4.7265625 2.32421875 C4.7265625 5.62421875 4.7265625 8.92421875 4.7265625 12.32421875 C2.7265625 9.32421875 2.7265625 9.32421875 1.2265625 6.19921875 C0.03757949 3.23551067 0.03757949 3.23551067 -2.2734375 2.32421875 C-8.88265954 1.60177062 -8.88265954 1.60177062 -14.7734375 4.07421875 C-18.05615991 8.99830236 -18.61135558 12.78188906 -18.5859375 18.69921875 C-18.60205078 19.44171875 -18.61816406 20.18421875 -18.63476562 20.94921875 C-18.63906383 25.81478257 -17.9030557 29.088678 -15.2734375 33.32421875 C-12.70529657 35.89235968 -11.47185674 35.7092562 -7.8984375 35.82421875 C-3.18104419 35.78418053 -3.18104419 35.78418053 0.3515625 32.63671875 C1.5299475 29.79788216 2.36858569 27.36702163 2.7265625 24.32421875 C3.3865625 24.32421875 4.0465625 24.32421875 4.7265625 24.32421875 C4.7265625 27.95421875 4.7265625 31.58421875 4.7265625 35.32421875 C-1.88089504 39.12149236 -7.81583515 39.10363562 -15.2734375 38.32421875 C-20.78457099 35.94873018 -22.75500408 32.54763622 -25.2734375 27.32421875 C-27.12365962 21.25549021 -27.282782 14.75613392 -24.5859375 8.94921875 C-19.3842244 -0.16756463 -9.83104867 -2.92228766 0 0 Z " fill="#090909" transform="translate(81.2734375,222.67578125)"/>
<path d="M0 0 C5.5 3 5.5 3 7 6 C7 7.98 7 9.96 7 12 C1.39 12 -4.22 12 -10 12 C-9.71125 13.60875 -9.4225 15.2175 -9.125 16.875 C-8.96257812 17.77992188 -8.80015625 18.68484375 -8.6328125 19.6171875 C-8.16955297 22.16505988 -8.16955297 22.16505988 -6 24 C-2.98892823 24.34553283 -0.90687223 24.57248153 2 24 C5.00333267 21.66663334 5.00333267 21.66663334 7 19 C6.67873125 21.97173598 6.47206825 23.55339161 4.26171875 25.64453125 C0.37191821 27.97572432 -3.60490586 27.5208472 -8 27 C-11.13594153 25.73227896 -12.56546548 24.47948636 -14.8125 22 C-16.66223404 17.3269877 -16.89679586 12.94296932 -16 8 C-12.20557206 1.36265204 -7.65997067 -1.06585863 0 0 Z " fill="#0A0A0A" transform="translate(163,234)"/>
<path d="M0 0 C3.4375 0.375 3.4375 0.375 5.4375 2.375 C5.90938458 5.4993518 5.80785541 8.65649939 5.8125 11.8125 C5.83699219 12.68455078 5.86148438 13.55660156 5.88671875 14.45507812 C5.91609496 20.82482032 5.91609496 20.82482032 3.609375 23.4765625 C0.49101875 24.76653001 -1.38795933 24.41017631 -4.5625 23.375 C-7.14048279 19.84220877 -6.8624743 16.11703741 -6.875 11.875 C-6.89175781 10.5653125 -6.90851563 9.255625 -6.92578125 7.90625 C-6.38246946 2.6250257 -5.40085662 0.56851122 0 0 Z " fill="#F7F7F7" transform="translate(199.5625,235.625)"/>
<path d="M0 0 C3.3 0 6.6 0 10 0 C10.33 0.99 10.66 1.98 11 3 C11.37125 2.505 11.7425 2.01 12.125 1.5 C14.79160885 -0.63328708 16.67893663 -0.35330461 20 0 C22 2 22 2 22.125 5.125 C22.08375 6.07375 22.0425 7.0225 22 8 C20.35 8 18.7 8 17 8 C17 6.02 17 4.04 17 2 C15.00136244 2.57944932 15.00136244 2.57944932 13 4 C11.07678374 8.56076999 10.60255021 12.98267047 10.375 17.875 C10.33632812 18.56335938 10.29765625 19.25171875 10.2578125 19.9609375 C10.16451834 21.64023246 10.08121762 23.32007767 10 25 C11.32 25 12.64 25 14 25 C14 25.66 14 26.32 14 27 C7.07 27 0.14 27 -7 27 C-7 26.67 -7 26.34 -7 26 C-3.37 25.67 0.26 25.34 4 25 C4 17.41 4 9.82 4 2 C2.68 2 1.36 2 0 2 C0 1.34 0 0.68 0 0 Z " fill="#1F1F1F" transform="translate(113,234)"/>
<path d="M0 0 C1.98 0 3.96 0 6 0 C6 2.31 6 4.62 6 7 C7.98 7 9.96 7 12 7 C12 7.66 12 8.32 12 9 C10.02 9 8.04 9 6 9 C6.33 16.26 6.66 23.52 7 31 C10.74691447 30.21693046 10.74691447 30.21693046 13 29 C11.125 32.875 11.125 32.875 10 34 C3.66947328 34.46892791 3.66947328 34.46892791 1.29174805 32.8034668 C-0.43895107 30.38716092 -0.34419613 28.84864345 -0.29296875 25.89453125 C-0.28330078 24.91162109 -0.27363281 23.92871094 -0.26367188 22.91601562 C-0.23853516 21.89185547 -0.21339844 20.86769531 -0.1875 19.8125 C-0.16719727 18.25885742 -0.16719727 18.25885742 -0.14648438 16.67382812 C-0.11111389 14.11536301 -0.06175544 11.5579422 0 9 C-1.32 9 -2.64 9 -4 9 C-4 8.34 -4 7.68 -4 7 C-2.68 7 -1.36 7 0 7 C0 4.69 0 2.38 0 0 Z " fill="#292929" transform="translate(174,227)"/>
<path d="M0 0 C2.97 0 5.94 0 9 0 C9 11.88 9 23.76 9 36 C10.65 36 12.3 36 14 36 C14 36.66 14 37.32 14 38 C9.38 38 4.76 38 0 38 C0 37.34 0 36.68 0 36 C1.32 36 2.64 36 4 36 C4 24.45 4 12.9 4 1 C2.68 0.67 1.36 0.34 0 0 Z " fill="#080809" transform="translate(134,223)"/>
<path d="M0 0 C2.97 0 5.94 0 9 0 C9 1.32 9 2.64 9 4 C9.66 4.33 10.32 4.66 11 5 C10.67 11.27 10.34 17.54 10 24 C11.32 24 12.64 24 14 24 C14 24.66 14 25.32 14 26 C9.05 26 4.1 26 -1 26 C-1 25.34 -1 24.68 -1 24 C0.65 24 2.3 24 4 24 C4 16.41 4 8.82 4 1 C2.68 0.67 1.36 0.34 0 0 Z " fill="#171718" transform="translate(212,235)"/>
<path d="M0 0 C6.09067026 -0.42004622 9.10816881 -0.0566405 14 4 C15 6 15 6 15 12 C9.39 11.67 3.78 11.34 -2 11 C-0.875 3.125 -0.875 3.125 0 0 Z " fill="#161616" transform="translate(155,234)"/>
<path d="M0 0 C-0.32613281 0.66902344 -0.65226563 1.33804688 -0.98828125 2.02734375 C-2.2294841 5.67427567 -2.22951879 8.71587055 -2.1875 12.5625 C-2.18105469 13.86316406 -2.17460937 15.16382813 -2.16796875 16.50390625 C-2.03722463 19.22520835 -1.81823822 21.42745903 -1 24 C-0.34 24 0.32 24 1 24 C1 24.66 1 25.32 1 26 C-1.66239772 25.92393149 -3.42317436 25.50823016 -5.4453125 23.7265625 C-8.94739606 19.46402651 -9.65384947 15.82547428 -9.36328125 10.37109375 C-8.86369078 7.11032584 -7.8409924 4.72739615 -6 2 C-3 0 -3 0 0 0 Z " fill="#0D0D0D" transform="translate(196,235)"/>
<path d="M0 0 C0.08153933 1.58246707 0.13943557 3.16616273 0.1875 4.75 C0.22230469 5.63171875 0.25710937 6.5134375 0.29296875 7.421875 C-0.05717287 10.50312129 -0.8194961 11.8194961 -3 14 C-6.1875 14.25 -6.1875 14.25 -9 14 C-10.50934217 10.98131566 -10.17510672 8.32702771 -10 5 C-7.48732962 1.23099443 -4.57078644 0 0 0 Z " fill="#E9E9E9" transform="translate(104,245)"/>
<path d="M0 0 C6.0546875 -0.1953125 6.0546875 -0.1953125 8 0 C8.66 0.66 9.32 1.32 10 2 C9.70241581 4.3381615 9.36760731 6.67182036 9 9 C9.33 9.99 9.66 10.98 10 12 C8.68 11.67 7.36 11.34 6 11 C5.67 9.68 5.34 8.36 5 7 C4.34 7 3.68 7 3 7 C3 8.65 3 10.3 3 12 C2.01 12 1.02 12 0 12 C0 8.04 0 4.08 0 0 Z " fill="#3D3D3D" transform="translate(157,272)"/>
<path d="M0 0 C2.97 0 5.94 0 9 0 C9 2.31 9 4.62 9 7 C7.35 7 5.7 7 4 7 C4 7.66 4 8.32 4 9 C5.98 9 7.96 9 10 9 C10 9.99 10 10.98 10 12 C6.7 12 3.4 12 0 12 C0 8.04 0 4.08 0 0 Z " fill="#383838" transform="translate(137,272)"/>
<path d="M0 0 C1.65 0 3.3 0 5 0 C6.81883009 2.3832946 8 3.95818337 8 7 C8.66 7 9.32 7 10 7 C10 4.69 10 2.38 10 0 C10.66 0 11.32 0 12 0 C12 3.96 12 7.92 12 12 C10.68 12 9.36 12 8 12 C5.75 9 5.75 9 4 6 C3.67 7.98 3.34 9.96 3 12 C2.01 12 1.02 12 0 12 C0 8.04 0 4.08 0 0 Z " fill="#191919" transform="translate(81,272)"/>
<path d="M0 0 C-0.66 0.66 -1.32 1.32 -2 2 C-2.99 1.67 -3.98 1.34 -5 1 C-17.39207551 0.22323725 -28.94908546 1.89623483 -40.5390625 6.29296875 C-43 7 -43 7 -46 6 C-43.85883362 3.85883362 -42.91832216 3.52166609 -40.078125 2.74609375 C-38.91023438 2.42415039 -38.91023438 2.42415039 -37.71875 2.09570312 C-36.9040625 1.87849609 -36.089375 1.66128906 -35.25 1.4375 C-34.45078125 1.21642578 -33.6515625 0.99535156 -32.828125 0.76757812 C-22.09648524 -2.15361658 -10.69234202 -3.97854587 0 0 Z " fill="#565657" transform="translate(148,109)"/>
<path d="M0 0 C3.375 -0.125 3.375 -0.125 7 0 C9 2 9 2 9.125 5.125 C9.08375 6.07375 9.0425 7.0225 9 8 C5.37 8 1.74 8 -2 8 C-1.125 2.25 -1.125 2.25 0 0 Z " fill="#F4F4F4" transform="translate(155,236)"/>
<path d="M0 0 C13.88318588 -1.18434761 29.6193313 1.38056191 42 8 C41.67 9.65 41.34 11.3 41 13 C40.65775391 12.05833984 40.65775391 12.05833984 40.30859375 11.09765625 C39.16692733 8.82087615 39.16692733 8.82087615 36.78515625 8.05859375 C35.88667969 7.85363281 34.98820312 7.64867188 34.0625 7.4375 C32.57169922 7.08365234 32.57169922 7.08365234 31.05078125 6.72265625 C30.04402344 6.48417969 29.03726563 6.24570313 28 6 C26.24960054 5.45962557 24.49959377 4.91797738 22.75 4.375 C16.91180958 2.74436216 11.11077809 2.51031033 5.08984375 2.30859375 C2 2 2 2 0 0 Z " fill="#3E3F3F" transform="translate(156,107)"/>
<path d="M0 0 C0.99 0 1.98 0 3 0 C3.33 2.97 3.66 5.94 4 9 C4.99 8.67 5.98 8.34 7 8 C7.33 5.36 7.66 2.72 8 0 C8.99 0 9.98 0 11 0 C11.08131463 1.43655854 11.13933559 2.8744483 11.1875 4.3125 C11.22230469 5.11300781 11.25710937 5.91351563 11.29296875 6.73828125 C11 9 11 9 9.6796875 10.7734375 C7.12347196 12.64006931 5.06777019 12.32635853 2 12 C0 10 0 10 -0.1953125 7.6171875 C-0.17210937 6.71226562 -0.14890625 5.80734375 -0.125 4.875 C-0.10695312 3.96492188 -0.08890625 3.05484375 -0.0703125 2.1171875 C-0.04710937 1.41851562 -0.02390625 0.71984375 0 0 Z " fill="#191919" transform="translate(60,272)"/>
<path d="M0 0 C13.66732163 -0.65428667 25.00794987 1.56271519 38 6 C38 6.66 38 7.32 38 8 C36.35451172 7.58427734 36.35451172 7.58427734 34.67578125 7.16015625 C33.22137007 6.79420763 31.7669421 6.42832573 30.3125 6.0625 C29.59126953 5.88009766 28.87003906 5.69769531 28.12695312 5.50976562 C26.08676849 4.99739049 24.04370731 4.49809548 22 4 C21.195625 3.79375 20.39125 3.5875 19.5625 3.375 C15.60862495 2.79638414 11.67683229 2.89656762 7.6875 2.9375 C6.43356445 2.94426758 6.43356445 2.94426758 5.15429688 2.95117188 C3.10283351 2.96289452 1.05140727 2.98082797 -1 3 C-0.67 2.01 -0.34 1.02 0 0 Z " fill="#2C2C2C" transform="translate(156,135)"/>
<path d="M0 0 C0 0.66 0 1.32 0 2 C-1.77890625 1.93039063 -1.77890625 1.93039063 -3.59375 1.859375 C-14.80675011 1.56015986 -24.25477845 2.75689677 -35 6 C-36.33091935 6.34284482 -37.66300574 6.68166803 -39 7 C-38.67 6.01 -38.34 5.02 -38 4 C-36.19677734 3.20043945 -36.19677734 3.20043945 -33.8359375 2.61328125 C-32.53329956 2.2886792 -32.53329956 2.2886792 -31.2043457 1.95751953 C-30.27066162 1.74466309 -29.33697754 1.53180664 -28.375 1.3125 C-27.43035889 1.09190918 -26.48571777 0.87131836 -25.51245117 0.64404297 C-6.88252099 -3.44126049 -6.88252099 -3.44126049 0 0 Z " fill="#444445" transform="translate(143,136)"/>
<path d="M0 0 C0.66 0 1.32 0 2 0 C2 3.63 2 7.26 2 11 C-2.67049515 13.7376287 -5.98799719 14.33996234 -11.375 14.1875 C-12.62023437 14.16042969 -13.86546875 14.13335937 -15.1484375 14.10546875 C-16.08945313 14.07066406 -17.03046875 14.03585937 -18 14 C-14.75706946 11.83804631 -13.79717268 11.81739259 -10.0625 11.75 C-5.67585519 11.39528918 -5.67585519 11.39528918 -2.4375 8.25 C-1.18535802 5.4190703 -0.36018945 3.06161035 0 0 Z " fill="#202020" transform="translate(84,247)"/>
<path d="M0 0 C1.32 0.33 2.64 0.66 4 1 C4.12375 1.639375 4.2475 2.27875 4.375 2.9375 C4.684375 3.9584375 4.684375 3.9584375 5 5 C5.66 5.33 6.32 5.66 7 6 C7.33 4.35 7.66 2.7 8 1 C9.32 0.67 10.64 0.34 12 0 C10.68938409 4.23429756 9.05643741 8.07407404 7 12 C6.01 12 5.02 12 4 12 C3.32645501 10.56570999 2.66140299 9.12742943 2 7.6875 C1.62875 6.88699219 1.2575 6.08648437 0.875 5.26171875 C0 3 0 3 0 0 Z " fill="#191919" transform="translate(117,272)"/>
<path d="M0 0 C1.670625 0.061875 1.670625 0.061875 3.375 0.125 C3.045 1.115 2.715 2.105 2.375 3.125 C0.3125 3.8125 0.3125 3.8125 -1.625 4.125 C0.85 5.115 0.85 5.115 3.375 6.125 C2.5 11 2.5 11 1.375 12.125 C-0.62458364 12.16580783 -2.62545254 12.16754356 -4.625 12.125 C-4.625 11.135 -4.625 10.145 -4.625 9.125 C-2.975 9.455 -1.325 9.785 0.375 10.125 C0.375 9.135 0.375 8.145 0.375 7.125 C-1.275 6.795 -2.925 6.465 -4.625 6.125 C-5.25 4.25 -5.25 4.25 -5.625 2.125 C-3.625 0.125 -3.625 0.125 0 0 Z " fill="#1D1D1D" transform="translate(182.625,271.875)"/>
<path d="M0 0 C3.3 0 6.6 0 10 0 C10.33 0.99 10.66 1.98 11 3 C11.37125 2.505 11.7425 2.01 12.125 1.5 C14.79160885 -0.63328708 16.67893663 -0.35330461 20 0 C22 2 22 2 22.125 5.125 C22.08375 6.07375 22.0425 7.0225 22 8 C20.35 8 18.7 8 17 8 C17 6.02 17 4.04 17 2 C13.87802522 3.3089572 13.87802522 3.3089572 12 6 C11.01 6 10.02 6 9 6 C9 4.35 9 2.7 9 1 C6.03 1 3.06 1 0 1 C0 0.67 0 0.34 0 0 Z " fill="#2A2A2A" transform="translate(113,234)"/>
<path d="M0 0 C0 0.66 0 1.32 0 2 C-2.1875 1.5625 -2.1875 1.5625 -4.375 1.125 C-5.75365234 0.85429688 -5.75365234 0.85429688 -7.16015625 0.578125 C-8.92355623 0.21913849 -10.68275039 -0.16219432 -12.43359375 -0.578125 C-19.31868077 -2.16090363 -25.95623821 -2.19872682 -33 -2 C-33 -2.66 -33 -3.32 -33 -4 C-22.58365957 -7.47211348 -9.91786682 -3.63655117 0 0 Z " fill="#303030" transform="translate(189,123)"/>
<path d="M0 0 C0.82757813 -0.01417969 1.65515625 -0.02835937 2.5078125 -0.04296875 C5.05916934 0.20543068 6.67585002 0.90550704 8.875 2.1875 C5.57844873 3.28635042 3.27394127 3.21989052 -0.1875 3.125 C-8.36824479 3.06123027 -15.42518232 4.49256381 -23.125 7.1875 C-23.785 7.1875 -24.445 7.1875 -25.125 7.1875 C-25.125 6.5275 -25.125 5.8675 -25.125 5.1875 C-22.91790017 4.53746375 -20.70926108 3.89265255 -18.5 3.25 C-17.27023438 2.89035156 -16.04046875 2.53070313 -14.7734375 2.16015625 C-9.82652638 0.84133305 -5.12045482 0.04012896 0 0 Z " fill="#3B3B3B" transform="translate(134.125,117.8125)"/>
<path d="M0 0 C3.3 0 6.6 0 10 0 C10 0.99 10 1.98 10 3 C9.01 3 8.02 3 7 3 C7 5.97 7 8.94 7 12 C5.68 12 4.36 12 3 12 C3 8.7 3 5.4 3 2 C2.01 2 1.02 2 0 2 C0 1.34 0 0.68 0 0 Z " fill="#323232" transform="translate(209,272)"/>
<path d="M0 0 C1.32 0 2.64 0 4 0 C4.33 1.32 4.66 2.64 5 4 C5.66 4 6.32 4 7 4 C7.33 2.68 7.66 1.36 8 0 C9.32 0.33 10.64 0.66 12 1 C11.360625 1.70125 10.72125 2.4025 10.0625 3.125 C7.83613898 6.22841233 7.34919057 8.24620139 7 12 C6.01 12 5.02 12 4 12 C3.71125 10.7625 3.4225 9.525 3.125 8.25 C2.38665206 5.27551258 1.55525067 2.666144 0 0 Z " fill="#1C1C1C" transform="translate(227,272)"/>
<path d="M0 0 C0 0.33 0 0.66 0 1 C-0.94359375 1.03738281 -1.8871875 1.07476562 -2.859375 1.11328125 C-10.33533825 1.4960866 -17.14099917 2.29243896 -24.390625 4.30078125 C-27.59046052 5.1582222 -30.71284118 5.62645923 -34 6 C-34 5.34 -34 4.68 -34 4 C-22.45269159 0.47602577 -12.04913942 -0.50204748 0 0 Z " fill="#2C2C2C" transform="translate(141,127)"/>
<path d="M0 0 C6.81598387 -0.33278764 11.92122066 -0.24201565 18 3 C18 6.3 18 9.6 18 13 C16 10 16 10 15.1875 7 C11.56515652 2.03221465 5.83054281 1.94819099 0 1 C0 0.67 0 0.34 0 0 Z " fill="#1B1B1B" transform="translate(68,222)"/>
<path d="M0 0 C1.33804688 0.04060547 1.33804688 0.04060547 2.703125 0.08203125 C3.37859375 0.11683594 4.0540625 0.15164062 4.75 0.1875 C1.3147952 2.47763653 -0.235331 2.36592973 -4.25 2.1875 C-4.229375 2.991875 -4.20875 3.79625 -4.1875 4.625 C-4.25 7.1875 -4.25 7.1875 -5.25 8.1875 C-6.91617115 8.22813832 -8.58388095 8.230221 -10.25 8.1875 C-9.9299297 5.22684968 -9.71276664 3.63343877 -7.53125 1.53125 C-4.7845053 -0.08669551 -3.15927814 -0.12470835 0 0 Z " fill="#292929" transform="translate(100.25,233.8125)"/>
<path d="M0 0 C2.31 0 4.62 0 7 0 C6.67 0.66 6.34 1.32 6 2 C5.01 1.67 4.02 1.34 3 1 C3.185625 1.721875 3.37125 2.44375 3.5625 3.1875 C4.01995307 6.12826973 3.73516357 8.14103058 3 11 C2.01 11 1.02 11 0 11 C0 7.37 0 3.74 0 0 Z " fill="#090909" transform="translate(157,273)"/>
<path d="M0 0 C-3.48865769 2.3257718 -7.03944811 3.45070844 -11 4.6875 C-12.08667969 5.04424805 -12.08667969 5.04424805 -13.1953125 5.40820312 C-18.63850409 7.12049864 -18.63850409 7.12049864 -22 6 C-19.29668983 3.29668983 -16.28457204 2.80084314 -12.6875 1.875 C-12.02298828 1.69324219 -11.35847656 1.51148437 -10.67382812 1.32421875 C-7.0393086 0.36795545 -3.75884943 -0.21811505 0 0 Z " fill="#3D3D3D" transform="translate(124,109)"/>
<path d="M0 0 C0.99 0 1.98 0 3 0 C3 3.96 3 7.92 3 12 C2.01 12 1.02 12 0 12 C0 8.04 0 4.08 0 0 Z " fill="#262626" transform="translate(196,272)"/>
<path d="M0 0 C0.99 0 1.98 0 3 0 C3 3.96 3 7.92 3 12 C2.01 12 1.02 12 0 12 C0 8.04 0 4.08 0 0 Z " fill="#181819" transform="translate(104,272)"/>
<path d="M0 0 C5.65020618 0.60108576 10.66164461 2.07528683 16 4 C16 4.66 16 5.32 16 6 C14.41532272 5.71572583 12.8322943 5.42225182 11.25 5.125 C10.36828125 4.96257812 9.4865625 4.80015625 8.578125 4.6328125 C4.94877187 3.74197128 2.64560971 2.64560971 0 0 Z " fill="#4D4D4D" transform="translate(173,119)"/>
<path d="M0 0 C1.32 0 2.64 0 4 0 C3.125 4.875 3.125 4.875 2 6 C0.00041636 6.04080783 -2.00045254 6.04254356 -4 6 C-4 5.01 -4 4.02 -4 3 C-2.35 3.33 -0.7 3.66 1 4 C0.67 2.68 0.34 1.36 0 0 Z " fill="#0F0F0F" transform="translate(182,278)"/>
<path d="M0 0 C-2.62394306 0.83679277 -5.24904384 1.66956942 -7.875 2.5 C-8.62136719 2.73847656 -9.36773437 2.97695312 -10.13671875 3.22265625 C-15.7734375 5 -15.7734375 5 -18 5 C-17.67 4.01 -17.34 3.02 -17 2 C-14.19921875 1.015625 -14.19921875 1.015625 -10.6875 0.25 C-8.96080078 -0.14445313 -8.96080078 -0.14445313 -7.19921875 -0.546875 C-4.21052862 -0.97018154 -2.79988923 -0.82177679 0 0 Z " fill="#313131" transform="translate(122,138)"/>
<path d="M0 0 C0.99 0 1.98 0 3 0 C3 2.97 3 5.94 3 9 C2.01 9 1.02 9 0 9 C0 6.03 0 3.06 0 0 Z " fill="#232323" transform="translate(60,272)"/>
<path d="M0 0 C2.3828125 0.0234375 2.3828125 0.0234375 5.125 0.375 C6.03507813 0.48585938 6.94515625 0.59671875 7.8828125 0.7109375 C8.93082031 0.85402344 8.93082031 0.85402344 10 1 C10 1.99 10 2.98 10 4 C4.06 3.01 4.06 3.01 -2 2 C-1.34 1.34 -0.68 0.68 0 0 Z " fill="#3B3B3B" transform="translate(137,107)"/>
<path d="M0 0 C0.33 0.99 0.66 1.98 1 3 C-1.125 5.5625 -1.125 5.5625 -4 8 C-7.3125 7.8125 -7.3125 7.8125 -10 7 C-10 6.67 -10 6.34 -10 6 C-8.3603125 5.62875 -8.3603125 5.62875 -6.6875 5.25 C-2.94091591 3.97997149 -1.89404734 3.34243648 0 0 Z " fill="#444444" transform="translate(169,253)"/>
<path d="M0 0 C3.96 0.33 7.92 0.66 12 1 C12 1.33 12 1.66 12 2 C5.565 2.495 5.565 2.495 -1 3 C-0.67 2.01 -0.34 1.02 0 0 Z " fill="#707070" transform="translate(156,135)"/>
</svg>
