<?xml version="1.0" encoding="UTF-8"?>
<svg version="1.1" xmlns="http://www.w3.org/2000/svg" width="269" height="241">
<path d="M0 0 C88.77 0 177.54 0 269 0 C269 79.53 269 159.06 269 241 C180.23 241 91.46 241 0 241 C0 161.47 0 81.94 0 0 Z " fill="#FEFEFE" transform="translate(0,0)"/>
<path d="M0 0 C-0.33 1.98 -0.66 3.96 -1 6 C-0.3294458 5.84853516 0.3411084 5.69707031 1.03198242 5.54101562 C4.08261654 4.85518348 7.135009 4.1775175 10.1875 3.5 C11.24259766 3.26152344 12.29769531 3.02304688 13.38476562 2.77734375 C14.40634766 2.55175781 15.42792969 2.32617188 16.48046875 2.09375 C17.41785889 1.88427734 18.35524902 1.67480469 19.32104492 1.45898438 C21.93971199 1.01032912 24.34939083 0.91592041 27 1 C24.52541551 3.47458449 22.90610915 3.66692576 19.51171875 4.4375 C18.41279297 4.69273438 17.31386719 4.94796875 16.18164062 5.2109375 C15.02857422 5.47132812 13.87550781 5.73171875 12.6875 6 C10.41976733 6.51731451 8.15280686 7.03802841 5.88671875 7.5625 C4.37404419 7.90474609 4.37404419 7.90474609 2.83081055 8.25390625 C-2.5254644 9.66561615 -5.01251671 10.87443013 -8.42578125 15.2890625 C-11.70981013 18.85830481 -15.98399892 21.32682976 -20 24 C-24.66878969 26.87170428 -24.66878969 26.87170428 -28 31 C-28.16670273 34.04173894 -28.16670273 34.04173894 -28 37 C-26.38822832 38.61177168 -24.66185056 38.20924854 -22.4375 38.25 C-11.83353045 38.08548143 -1.00157149 31.81689903 7.80078125 26.21875 C8.88939453 25.61546875 8.88939453 25.61546875 10 25 C10.66 25.33 11.32 25.66 12 26 C-15.12557368 44.98414977 -15.12557368 44.98414977 -28 43 C-31.0625 40.875 -31.0625 40.875 -33 38 C-33.3125 34.6875 -33.3125 34.6875 -33 32 C-37.84499763 34.14136932 -42.67952446 36.30393004 -47.5 38.5 C-48.41652344 38.91636719 -49.33304688 39.33273438 -50.27734375 39.76171875 C-52.06263124 40.57367877 -53.84653991 41.3886788 -55.62890625 42.20703125 C-56.43199219 42.57183594 -57.23507813 42.93664062 -58.0625 43.3125 C-59.13177734 43.80169922 -59.13177734 43.80169922 -60.22265625 44.30078125 C-62 45 -62 45 -64 45 C-63.51163825 40.48265382 -63.51163825 40.48265382 -61.4140625 38.50390625 C-58.31640914 36.57413838 -55.0522524 35.43934744 -51.625 34.25 C-34.79837473 28.53022022 -34.79837473 28.53022022 -23 16 C-30.42735319 16.3495225 -37.27412193 18.01959996 -44.38671875 20.0625 C-47.95443155 20.98817683 -51.34925063 21.55010021 -55 22 C-55 20.68 -55 19.36 -55 18 C-48.62670551 15.69064835 -42.38634337 14.00791568 -35.69921875 12.9375 C-18.71717822 10.60630844 -18.71717822 10.60630844 -6 0 C-3.50907189 -1.24546405 -2.58919267 -0.7767578 0 0 Z " fill="#7DC457" transform="translate(77,104)"/>
<path d="M0 0 C2.64 0 5.28 0 8 0 C8 6.6 8 13.2 8 20 C11.465 19.505 11.465 19.505 15 19 C15.33 12.73 15.66 6.46 16 0 C18.31 0 20.62 0 23 0 C23.11632513 3.41637953 23.18728897 6.83224897 23.25 10.25 C23.30027344 11.70212891 23.30027344 11.70212891 23.3515625 13.18359375 C23.45050563 20.3569706 23.45050563 20.3569706 21.171875 23.609375 C16.46310681 26.62434168 11.42325682 26.64871493 6 26 C3.06576805 24.20353146 1.52794645 23.0558929 0 20 C-0.08372659 18.47851674 -0.10730027 16.95344222 -0.09765625 15.4296875 C-0.09443359 14.53378906 -0.09121094 13.63789062 -0.08789062 12.71484375 C-0.07951172 11.77769531 -0.07113281 10.84054688 -0.0625 9.875 C-0.05798828 8.93011719 -0.05347656 7.98523438 -0.04882812 7.01171875 C-0.03702357 4.67441613 -0.02055759 2.33723939 0 0 Z " fill="#553576" transform="translate(195,111)"/>
<path d="M0 0 C0.61875 0.33 1.2375 0.66 1.875 1 C1.545 2.32 1.215 3.64 0.875 5 C-2.755 5 -6.385 5 -10.125 5 C-10.125 5.99 -10.125 6.98 -10.125 8 C-9.43792969 8.19335938 -8.75085938 8.38671875 -8.04296875 8.5859375 C-7.14191406 8.84632812 -6.24085938 9.10671875 -5.3125 9.375 C-4.41917969 9.63023438 -3.52585938 9.88546875 -2.60546875 10.1484375 C-0.125 11 -0.125 11 2.875 13 C3.61038349 17.98426591 3.68047141 19.89535349 0.6875 24 C-4.08747141 27.40905411 -10.56382219 26.70535633 -16.125 26 C-17.115 25.34 -18.105 24.68 -19.125 24 C-18.795 22.35 -18.465 20.7 -18.125 19 C-17.444375 19.165 -16.76375 19.33 -16.0625 19.5 C-12.7085178 20.07089059 -9.52110195 20.06659023 -6.125 20 C-6.125 19.01 -6.125 18.02 -6.125 17 C-6.72828125 16.82984375 -7.3315625 16.6596875 -7.953125 16.484375 C-16.58356354 13.86740331 -16.58356354 13.86740331 -19.125 10 C-19.75 7.0625 -19.75 7.0625 -19.125 4 C-13.92099891 -2.29958027 -7.52742814 -2.408777 0 0 Z " fill="#553475" transform="translate(249.125,111)"/>
<path d="M0 0 C-0.33 1.98 -0.66 3.96 -1 6 C-0.3294458 5.84853516 0.3411084 5.69707031 1.03198242 5.54101562 C4.08261654 4.85518348 7.135009 4.1775175 10.1875 3.5 C11.24259766 3.26152344 12.29769531 3.02304688 13.38476562 2.77734375 C14.40634766 2.55175781 15.42792969 2.32617188 16.48046875 2.09375 C17.41785889 1.88427734 18.35524902 1.67480469 19.32104492 1.45898438 C21.93971199 1.01032912 24.34939083 0.91592041 27 1 C24.52541551 3.47458449 22.90610915 3.66692576 19.51171875 4.4375 C18.41279297 4.69273438 17.31386719 4.94796875 16.18164062 5.2109375 C15.02857422 5.47132812 13.87550781 5.73171875 12.6875 6 C10.41976733 6.51731451 8.15280686 7.03802841 5.88671875 7.5625 C4.87826904 7.79066406 3.86981934 8.01882812 2.83081055 8.25390625 C-2.5266218 9.66592119 -5.10886554 10.90071468 -8.5390625 15.3359375 C-11.22804772 18.39879232 -14.54696783 20.85043031 -18 23 C-18.66 23 -19.32 23 -20 23 C-19.64701919 20.0991395 -19.11271704 19.10483324 -16.93359375 17.078125 C-16.10988281 16.47484375 -15.28617188 15.8715625 -14.4375 15.25 C-13.61121094 14.63640625 -12.78492188 14.0228125 -11.93359375 13.390625 C-10.97646484 12.70226562 -10.97646484 12.70226562 -10 12 C-21.43421229 14.45431324 -32.78834579 17.14881125 -44.11328125 20.06884766 C-45.09554687 20.31940918 -46.0778125 20.5699707 -47.08984375 20.828125 C-47.96503662 21.0540332 -48.84022949 21.27994141 -49.74194336 21.51269531 C-52 22 -52 22 -55 22 C-55 20.68 -55 19.36 -55 18 C-48.62670551 15.69064835 -42.38634337 14.00791568 -35.69921875 12.9375 C-18.71717822 10.60630844 -18.71717822 10.60630844 -6 0 C-3.50907189 -1.24546405 -2.58919267 -0.7767578 0 0 Z " fill="#7DC458" transform="translate(77,104)"/>
<path d="M0 0 C5.61 0 11.22 0 17 0 C17 1.65 17 3.3 17 5 C13.7 5 10.4 5 7 5 C7 6.32 7 7.64 7 9 C9.97 9 12.94 9 16 9 C16 10.98 16 12.96 16 15 C13.03 15 10.06 15 7 15 C7 16.65 7 18.3 7 20 C10.63 20 14.26 20 18 20 C18 21.98 18 23.96 18 26 C12.06 26 6.12 26 0 26 C0 17.42 0 8.84 0 0 Z " fill="#5B3B7A" transform="translate(138,111)"/>
<path d="M0 0 C7.59 0 15.18 0 23 0 C23 1.65 23 3.3 23 5 C20.36 5 17.72 5 15 5 C15 11.93 15 18.86 15 26 C12.69 26 10.38 26 8 26 C8 19.07 8 12.14 8 5 C5.36 5 2.72 5 0 5 C0 3.35 0 1.7 0 0 Z " fill="#543374" transform="translate(105,111)"/>
<path d="M0 0 C2.31 0 4.62 0 7 0 C7 6.93 7 13.86 7 21 C10.63 21 14.26 21 18 21 C18 22.32 18 23.64 18 25 C12.06 25 6.12 25 0 25 C0 16.75 0 8.5 0 0 Z " fill="#4F2D70" transform="translate(168,111)"/>
<path d="M0 0 C-0.33 0.99 -0.66 1.98 -1 3 C-3.17041016 3.82788086 -3.17041016 3.82788086 -6.0390625 4.46484375 C-7.08787598 4.70565674 -8.13668945 4.94646973 -9.21728516 5.19458008 C-10.34183105 5.43974365 -11.46637695 5.68490723 -12.625 5.9375 C-14.91701985 6.45938879 -17.20868857 6.98282217 -19.5 7.5078125 C-20.61632812 7.76079102 -21.73265625 8.01376953 -22.8828125 8.27441406 C-27.9351148 9.45043556 -32.92169702 10.83306674 -37.9140625 12.23828125 C-41.26081217 13.06437769 -44.58222635 13.56524542 -48 14 C-48 12.68 -48 11.36 -48 10 C-39.07838769 7.02198779 -30.22504855 4.85909032 -20.99438477 3.13476562 C-18.90664344 2.7442279 -16.82147188 2.34165599 -14.73632812 1.9375 C-4.58805534 0 -4.58805534 0 0 0 Z " fill="#5A4175" transform="translate(70,112)"/>
<path d="M0 0 C-2.81654122 4.4084993 -5.60640169 5.99340518 -10.28125 7.88671875 C-14.69236859 9.69299576 -18.96852484 11.79214507 -23.27734375 13.828125 C-26 15 -26 15 -28 15 C-27.51232877 10.4890411 -27.51232877 10.4890411 -25.453125 8.5234375 C-22.13616631 6.46354277 -18.66970799 5.23718825 -15 3.9375 C-13.58260481 3.42780264 -12.16591417 2.91614096 -10.75 2.40234375 C-10.09128906 2.16499512 -9.43257812 1.92764648 -8.75390625 1.68310547 C-6.86820414 0.98992058 -6.86820414 0.98992058 -4.6875 -0.24609375 C-3 -1 -3 -1 0 0 Z " fill="#7EC559" transform="translate(41,134)"/>
<path d="M0 0 C0.66 0.33 1.32 0.66 2 1 C-20.86166008 17 -20.86166008 17 -28 17 C-28 16.34 -28 15.68 -28 15 C-30.64 15 -33.28 15 -36 15 C-36 14.67 -36 14.34 -36 14 C-35.21496094 13.89042969 -34.42992187 13.78085938 -33.62109375 13.66796875 C-27.62482093 12.76300978 -22.46623934 11.73311967 -17 9 C-16.03835937 8.53078125 -15.07671875 8.0615625 -14.0859375 7.578125 C-8.0508346 4.63282245 -8.0508346 4.63282245 -2.2578125 1.25 C-1.51273438 0.8375 -0.76765625 0.425 0 0 Z " fill="#8CCB6B" transform="translate(87,129)"/>
<path d="M0 0 C0.53625 0.2475 1.0725 0.495 1.625 0.75 C1.295 2.4 0.965 4.05 0.625 5.75 C-0.365 5.42 -1.355 5.09 -2.375 4.75 C-2.60960938 5.39453125 -2.84421875 6.0390625 -3.0859375 6.703125 C-4.375 8.75 -4.375 8.75 -6.5390625 9.359375 C-7.35117188 9.40578125 -8.16328125 9.4521875 -9 9.5 C-9.81726563 9.55671875 -10.63453125 9.6134375 -11.4765625 9.671875 C-12.10304687 9.69765625 -12.72953125 9.7234375 -13.375 9.75 C-5.40154867 -0.56858407 -5.40154867 -0.56858407 0 0 Z " fill="#83C760" transform="translate(75.375,103.25)"/>
<path d="M0 0 C-0.639375 0.309375 -1.27875 0.61875 -1.9375 0.9375 C-3.93610821 1.8345163 -3.93610821 1.8345163 -5 3 C-4.34 3.66 -3.68 4.32 -3 5 C-4.9363704 5.50435694 -6.87414146 6.00333874 -8.8125 6.5 C-9.89144531 6.7784375 -10.97039063 7.056875 -12.08203125 7.34375 C-15 8 -15 8 -18 8 C-18 6.68 -18 5.36 -18 4 C-15.94037148 3.32451422 -13.87715678 2.65995688 -11.8125 2 C-10.66394531 1.62875 -9.51539063 1.2575 -8.33203125 0.875 C-5.35679188 0.09369447 -3.04716104 -0.18363306 0 0 Z " fill="#573777" transform="translate(40,118)"/>
<path d="M0 0 C-3.68409056 3.68409056 -9.47827608 4.01852043 -14.4375 5.1875 C-15.59572266 5.47302734 -16.75394531 5.75855469 -17.94726562 6.05273438 C-19.61112305 6.45008789 -19.61112305 6.45008789 -21.30859375 6.85546875 C-22.83697876 7.22128052 -22.83697876 7.22128052 -24.39624023 7.59448242 C-27 8 -27 8 -30 7 C-27.59955588 4.59955588 -26.23466893 4.42060623 -22.94921875 3.7109375 C-21.94052734 3.49179688 -20.93183594 3.27265625 -19.89257812 3.046875 C-18.83490234 2.82515625 -17.77722656 2.6034375 -16.6875 2.375 C-15.11838867 2.03082031 -15.11838867 2.03082031 -13.51757812 1.6796875 C-8.9225003 0.69690828 -4.71725782 -0.1397311 0 0 Z " fill="#796093" transform="translate(104,105)"/>
<path d="M0 0 C0 0.66 0 1.32 0 2 C-5.89738492 4.29342747 -10.66606918 5.34548714 -17 5 C-15 2 -15 2 -12.79296875 1.26953125 C-11.93316406 1.11871094 -11.07335938 0.96789062 -10.1875 0.8125 C-8.90939453 0.57466797 -8.90939453 0.57466797 -7.60546875 0.33203125 C-5.03813852 0.00486023 -2.58487096 -0.06032912 0 0 Z " fill="#523173" transform="translate(51,117)"/>
<path d="M0 0 C-1.78673205 1.5058745 -3.57953508 3.0045485 -5.375 4.5 C-6.87160156 5.75296875 -6.87160156 5.75296875 -8.3984375 7.03125 C-11 9 -11 9 -13 9 C-11.22665985 5.00998466 -9.09773598 0.8899486 -4.9375 -0.875 C-3 -1 -3 -1 0 0 Z " fill="#DCE6D7" transform="translate(68,116)"/>
<path d="M0 0 C0.99 0.33 1.98 0.66 3 1 C1.70700306 3.88437779 0.34058637 5.87219421 -2 8 C-2.99 7.67 -3.98 7.34 -5 7 C-3.35 4.69 -1.7 2.38 0 0 Z " fill="#75B852" transform="translate(73,108)"/>
<path d="M0 0 C2.3125 0.1875 2.3125 0.1875 4 1 C1.75 3.5625 1.75 3.5625 -1 6 C-3.3125 5.8125 -3.3125 5.8125 -5 5 C-2.75 2.4375 -2.75 2.4375 0 0 Z " fill="#7DBF5A" transform="translate(67,107)"/>
<path d="M0 0 C0.66 0.33 1.32 0.66 2 1 C-1.63 3.31 -5.26 5.62 -9 8 C-9.66 7.34 -10.32 6.68 -11 6 C-9.21385682 4.96953278 -7.42089982 3.95086764 -5.625 2.9375 C-4.62726563 2.36902344 -3.62953125 1.80054688 -2.6015625 1.21484375 C-1.74304688 0.81394531 -0.88453125 0.41304687 0 0 Z " fill="#AEDA96" transform="translate(87,129)"/>
<path d="M0 0 C-0.639375 0.309375 -1.27875 0.61875 -1.9375 0.9375 C-3.93610821 1.8345163 -3.93610821 1.8345163 -5 3 C-4.34 3.66 -3.68 4.32 -3 5 C-4.32 5 -5.64 5 -7 5 C-7 4.34 -7 3.68 -7 3 C-8.32 2.67 -9.64 2.34 -11 2 C-7.17679443 0.57741188 -4.08718695 -0.24042276 0 0 Z " fill="#836B9A" transform="translate(40,118)"/>
<path d="M0 0 C-2.62198774 2.15377564 -4.64404172 3.40072174 -8 4 C-8 3.01 -8 2.02 -8 1 C-4.93251126 -0.86240388 -3.40254489 -1.2151946 0 0 Z " fill="#87BC6C" transform="translate(61,118)"/>
<path d="M0 0 C-2 2 -2 2 -4 3 C-4 2.34 -4 1.68 -4 1 C-8.455 1.495 -8.455 1.495 -13 2 C-8.7920942 -0.80527053 -4.85771358 -1.68151624 0 0 Z " fill="#7E6596" transform="translate(55,116)"/>
<path d="M0 0 C0.86625 0.3403125 0.86625 0.3403125 1.75 0.6875 C0.1 2.0075 -1.55 3.3275 -3.25 4.6875 C-4.24 4.0275 -5.23 3.3675 -6.25 2.6875 C-2.80384615 -0.38942308 -2.80384615 -0.38942308 0 0 Z " fill="#8ACA68" transform="translate(69.25,116.3125)"/>
<path d="M0 0 C0.763125 0.061875 1.52625 0.12375 2.3125 0.1875 C2.6425 0.8475 2.9725 1.5075 3.3125 2.1875 C-1.1425 2.6825 -1.1425 2.6825 -5.6875 3.1875 C-2.6875 0.1875 -2.6875 0.1875 0 0 Z " fill="#4C2D6C" transform="translate(57.6875,114.8125)"/>
<path d="M0 0 C0.33 0.66 0.66 1.32 1 2 C0.01 3.32 -0.98 4.64 -2 6 C-3.32 5.67 -4.64 5.34 -6 5 C-4.02 3.35 -2.04 1.7 0 0 Z " fill="#DAE7D4" transform="translate(73,106)"/>
</svg>
